<svg xmlns="http://www.w3.org/2000/svg" xmlns:xlink="http://www.w3.org/1999/xlink" width="861.857" height="539.144" viewBox="0 0 861.857 539.144">
  <defs>
    <linearGradient id="linear-gradient" x1="-1.618" y1="0.5" x2="-0.618" y2="0.5" gradientUnits="objectBoundingBox">
      <stop offset="0" stop-color="#dae3fe"/>
      <stop offset="1" stop-color="#e9effd"/>
    </linearGradient>
    <linearGradient id="linear-gradient-2" x1="-3.19" y1="0.5" x2="-2.19" y2="0.5" gradientUnits="objectBoundingBox">
      <stop offset="0" stop-color="#4042e2"/>
      <stop offset="1" stop-color="#4f52ff"/>
    </linearGradient>
    <linearGradient id="linear-gradient-3" y1="0.5" x2="1" y2="0.5" gradientUnits="objectBoundingBox">
      <stop offset="0" stop-color="#09005d"/>
      <stop offset="1" stop-color="#1a0f91"/>
    </linearGradient>
    <linearGradient id="linear-gradient-4" x1="0" y1="0.5" x2="1" y2="0.5" xlink:href="#linear-gradient-2"/>
    <linearGradient id="linear-gradient-9" x1="-22.87" y1="0.5" x2="-21.87" y2="0.5" xlink:href="#linear-gradient-2"/>
  </defs>
  <g id="Group_1632" data-name="Group 1632" transform="translate(-973.104 -2130.942)">
    <g id="Group_1358" data-name="Group 1358">
      <path id="Path_2255" data-name="Path 2255" d="M1013.621,2668.843c49.29,0,767.315.177,767.729-1.108l.071-.163a.865.865,0,0,0,.07-.238c.274-.642,110.631-181.158-60.932-306.823-67.128-49.169,4.2-81.628-49.179-136.366-61.347-62.9-128.3,6.684-196.512-21.84-12.053-5.035-24.148-13.139-36.255-25.575-28.079-28.812-66.6-42.141-106.382-45.133-76.223-5.7-162,26.346-206.267,73.18-8.912,9.431-49.439,58.228-17.493,125.3,20.17,42.347-64.327,82.791-94.353,131.148C937.779,2584.17,1012.928,2667.241,1013.621,2668.843Z" fill="url(#linear-gradient)"/>
    </g>
    <g id="Group_1361" data-name="Group 1361">
      <g id="Group_1359" data-name="Group 1359" opacity="0.5">
        <path id="Path_2256" data-name="Path 2256" d="M1556.732,2330.763s5.592-46.838,29.592-74.788a5.238,5.238,0,0,1,9.191,3.545c0,.081,0,.164-.007.247C1595.2,2268.122,1568.326,2303.365,1556.732,2330.763Z" fill="#91b3fa"/>
      </g>
      <g id="Group_1360" data-name="Group 1360" opacity="0.5">
        <path id="Path_2257" data-name="Path 2257" d="M1553.815,2344.172s23.916-58.543,64.765-84.433a5.555,5.555,0,0,1,7.534,1.424c1.088,1.583,1.576,4.056.356,7.917C1623.215,2279.377,1577.657,2314.037,1553.815,2344.172Z" fill="#91b3fa"/>
      </g>
    </g>
    <g id="Group_1366" data-name="Group 1366">
      <g id="Group_1362" data-name="Group 1362">
        <path id="Path_2258" data-name="Path 2258" d="M1255.92,2329.286s21.414-13.184,10.495-29.421c0,0-8.608-9.892-17.486-12.16,0,0,5.705,24.652,1.052,25.43s-4.376-27.928-4.376-27.928-23.552-10.152-32.577-8.9c0,0,15.327,23.668,10.626,23.277s-21.794-24.279-21.794-24.279-23.857-3.405-27.077,10.783,3.21,20.949,6.753,21.681,26.039-.492,25.576,2.455-15.47,8.253-24.056,5.973c0,0,10.309,22.705,22.538,21.028s15.713-9.435,23.289-10.334,13.214.918,9.5,3.121-16.633,1.36-22.556,6.832-10.759,8.894.738,10.76,31.9-.441,35.626-9.379Z" fill="#91b3fa"/>
      </g>
      <g id="Group_1365" data-name="Group 1365">
        <g id="Group_1363" data-name="Group 1363">
          <path id="Path_2259" data-name="Path 2259" d="M1185.78,2290.025s62.2,17.337,70.14,39.261a46.672,46.672,0,0,0,6.729,21.1l.181,4.385s-7.047-14.642-10.64-16.542C1252.19,2338.225,1265.13,2318.364,1185.78,2290.025Z" fill="#a9c2ff"/>
        </g>
        <g id="Group_1364" data-name="Group 1364">
          <path id="Path_2260" data-name="Path 2260" d="M1262.649,2350.382s10.061,13.984,5.388,31.7l-2.462-.553s1.566-19.371-3.787-28.86S1262.649,2350.382,1262.649,2350.382Z" fill="#73b471"/>
        </g>
      </g>
    </g>
    <g id="Group_1371" data-name="Group 1371">
      <g id="Group_1367" data-name="Group 1367">
        <path id="Path_2261" data-name="Path 2261" d="M1342.569,2328.76s35.962,3.181,37.311-24.878c0,0-1.43-18.771-9.707-28.994,0,0-14.569,33.277-20.593,30.183s18.907-35.909,18.907-35.909-18.413-31.883-29.878-38.18c0,0-2.647,40.394-7.724,35.913s-4.276-46.642-4.276-46.642-24.551-24.377-40.423-10.8-14.267,26.873-10.814,30.754,30.4,21.76,27.343,24.756-24.889-3.762-32.82-13.748c0,0-7.6,34.982,7.921,43.535s26.182,2.611,35.676,8.071,14.428,12.387,8.261,11.738-20.318-12.7-31.829-11.473-20.013,1.015-8.376,13.022,37.1,26.841,49.063,19.747Z" fill="#bdd0fb"/>
      </g>
      <g id="Group_1370" data-name="Group 1370">
        <g id="Group_1368" data-name="Group 1368">
          <path id="Path_2262" data-name="Path 2262" d="M1295.472,2223.414s56.76,73.3,47.1,105.346c0,0-8.394,11.559-10.34,30.06l-3.551,5.2s4.44-22.9,1.933-28.17C1330.611,2335.854,1362.539,2324.082,1295.472,2223.414Z" fill="#cedfff"/>
        </g>
        <g id="Group_1369" data-name="Group 1369">
          <path id="Path_2263" data-name="Path 2263" d="M1332.229,2358.82s-.405,24.728-20.98,41.126l-2.361-2.748s18.413-20.962,20.384-36.477S1332.229,2358.82,1332.229,2358.82Z" fill="#9bd399"/>
        </g>
      </g>
    </g>
    <g id="Group_1390" data-name="Group 1390">
      <g id="Group_1376" data-name="Group 1376">
        <g id="Group_1372" data-name="Group 1372">
          <path id="Path_2264" data-name="Path 2264" d="M1680.494,2605.215s10.073-11.752.622-19.216c0,0-6.9-4.179-12.534-3.84,0,0,7.977,13.376,5.4,14.706s-7.814-15.545-7.814-15.545-15.711-1.524-20.765.906c0,0,13.431,10.991,10.6,11.645s-17.335-10.133-17.335-10.133-14.623,2.488-13.843,11.408,5.818,11.675,8.033,11.438,15.168-5.182,15.45-3.368-7.515,7.744-12.976,8.021c0,0,10.309,11.37,17.161,8.089s7.436-8.483,11.707-10.434,7.917-1.945,6.153.044-9.492,3.923-11.935,8.244-4.634,7.234,2.455,6.167,18.611-6.254,19.117-12.193Z" fill="#91b3fa"/>
        </g>
        <g id="Group_1375" data-name="Group 1375">
          <g id="Group_1373" data-name="Group 1373">
            <path id="Path_2265" data-name="Path 2265" d="M1632.009,2595.387s39.715-1.531,48.485,9.828a28.727,28.727,0,0,0,7.909,11.1l.93,2.535s-6.882-7.256-9.344-7.7C1679.989,2611.154,1683.84,2597.083,1632.009,2595.387Z" fill="#b6cfff"/>
          </g>
          <g id="Group_1374" data-name="Group 1374">
            <path id="Path_2266" data-name="Path 2266" d="M1688.4,2616.314a24.94,24.94,0,0,1,9.117,17.568l-1.548.139s-2.722-11.647-7.643-16.2S1688.4,2616.314,1688.4,2616.314Z" fill="#b6cfff"/>
          </g>
        </g>
      </g>
      <g id="Group_1381" data-name="Group 1381">
        <g id="Group_1377" data-name="Group 1377">
          <path id="Path_2267" data-name="Path 2267" d="M1715.712,2590.436s-16.023-8.973-8.546-21.15c0,0,5.982-7.478,12.392-9.4,0,0-3.419,18.159,0,18.586s2.35-20.509,2.35-20.509,16.877-8.118,23.5-7.478c0,0-10.468,17.733-7.05,17.3s15.169-18.373,15.169-18.373,17.3-3.205,20.082,7.05-1.709,15.382-4.273,16.024-19.014.427-18.587,2.563,11.537,5.555,17.732,3.632c0,0-6.836,16.878-15.809,16.023s-11.75-6.409-17.305-6.836-9.614,1.068-6.836,2.563,12.177.49,16.664,4.3,8.118,6.164-.214,7.873-23.287.641-26.278-5.769Z" fill="#91b3fa"/>
        </g>
        <g id="Group_1380" data-name="Group 1380">
          <g id="Group_1378" data-name="Group 1378">
            <path id="Path_2268" data-name="Path 2268" d="M1765.7,2559.672s-44.865,14.527-49.992,30.764a34.076,34.076,0,0,1-4.273,15.6v3.205s4.7-10.9,7.264-12.392C1718.7,2596.845,1708.662,2582.745,1765.7,2559.672Z" fill="#a9c2ff"/>
          </g>
          <g id="Group_1379" data-name="Group 1379">
            <path id="Path_2269" data-name="Path 2269" d="M1711.439,2606.032s-6.919,10.507-2.974,23.3l1.78-.478s-1.728-14.087,1.892-21.172S1711.439,2606.032,1711.439,2606.032Z" fill="#a9c2ff"/>
          </g>
        </g>
      </g>
      <g id="Group_1386" data-name="Group 1386">
        <g id="Group_1382" data-name="Group 1382">
          <path id="Path_2270" data-name="Path 2270" d="M1690.221,2578.062s21.121-11.829,11.264-27.881c0,0-7.885-9.856-16.333-12.391,0,0,4.506,23.937,0,24.5s-3.1-27.036-3.1-27.036-22.248-10.7-30.978-9.856c0,0,13.8,23.374,9.293,22.811s-19.995-24.219-19.995-24.219-22.811-4.225-26.472,9.293,2.253,20.277,5.632,21.122,25.064.563,24.5,3.379-15.207,7.322-23.374,4.788c0,0,9.012,22.247,20.84,21.121s15.489-8.449,22.811-9.012,12.673,1.408,9.012,3.38-16.053.645-21.967,5.673-10.7,8.126.282,10.379,30.7.845,34.639-7.6Z" fill="#bdd0fb"/>
        </g>
        <g id="Group_1385" data-name="Group 1385">
          <g id="Group_1383" data-name="Group 1383">
            <path id="Path_2271" data-name="Path 2271" d="M1624.322,2537.509s59.14,19.149,65.9,40.553a44.923,44.923,0,0,0,5.632,20.558v4.224s-6.2-14.363-9.575-16.334C1686.278,2586.51,1699.514,2567.923,1624.322,2537.509Z" fill="#cedfff"/>
          </g>
          <g id="Group_1384" data-name="Group 1384">
            <path id="Path_2272" data-name="Path 2272" d="M1695.853,2598.62s9.12,13.849,3.921,30.708l-2.347-.63s2.278-18.569-2.494-27.908S1695.853,2598.62,1695.853,2598.62Z" fill="#cedfff"/>
          </g>
        </g>
      </g>
      <g id="Group_1387" data-name="Group 1387">
        <path id="Path_2273" data-name="Path 2273" d="M1690.933,2665.887a41.373,41.373,0,0,1-41.374-41.373h82.747A41.373,41.373,0,0,1,1690.933,2665.887Z" fill="#bbd3ff"/>
      </g>
      <g id="Group_1388" data-name="Group 1388">
        <path id="Path_2274" data-name="Path 2274" d="M1648.988,2667.993h83.889a5.1,5.1,0,0,0-5.1-5.1h-73.681a5.1,5.1,0,0,0-5.1,5.1Z" fill="#bbd3ff"/>
      </g>
      <g id="Group_1389" data-name="Group 1389">
        <rect id="Rectangle_158" data-name="Rectangle 158" width="85.048" height="1.269" transform="translate(1733.666 2625.783) rotate(-180)" fill="#80a1e6"/>
      </g>
    </g>
    <g id="Group_1391" data-name="Group 1391">
      <path id="Path_2275" data-name="Path 2275" d="M1408.717,2434.108l18.515,220.138s1.939,13.344-7.986,13.367c-16.321.04-81.231,0-81.231,0s12.283-2.777,12.134-9.027c-.176-7.367-21.639-226.561-21.639-226.561Z" fill="#768cee"/>
    </g>
    <g id="Group_1392" data-name="Group 1392">
      <path id="Path_2276" data-name="Path 2276" d="M1331.9,2663.612c3.21.01,66.052.116,81.945-.088,6.926-.086,8.141-6.158,8.2-10.089a19.659,19.659,0,0,0-.21-3.276l-.482-5.722-1.227-14.583-1.084-12.884-1.392-16.556-1.173-13.974-13.155-156.423-80.209-2.082s9.04,91.732,15.434,158.5c.714,7.439,1.393,14.573,2.021,21.232q.306,3.189.59,6.228c.593,6.318,1.135,12.119,1.606,17.242.249,2.7.478,5.208.686,7.506.816,9.005,1.294,14.755,1.3,15.849a9.268,9.268,0,0,1-.156,1.782C1343.279,2663.295,1333.108,2663.612,1331.9,2663.612Z" fill="#a9c2ff"/>
    </g>
    <g id="Group_1393" data-name="Group 1393">
      <path id="Path_2277" data-name="Path 2277" d="M1603.507,2314.222l-45.1,181.146-6.175,24.809-21,84.373H1141.01l77.417-290.327Z" fill="#a9c2ff"/>
    </g>
    <g id="Group_1394" data-name="Group 1394">
      <path id="Path_2278" data-name="Path 2278" d="M1603.508,2314.222l6.25,2.083-70.217,294.546-8.31-6.3Z" fill="#768cee"/>
    </g>
    <g id="Group_1395" data-name="Group 1395">
      <path id="Path_2279" data-name="Path 2279" d="M1539.54,2610.851H1151.72l-10.709-6.3H1531.23Z" fill="#809bf5"/>
    </g>
    <g id="Group_1396" data-name="Group 1396">
      <rect id="Rectangle_159" data-name="Rectangle 159" width="83.969" height="3.99" transform="translate(1319.381 2663.612)" fill="#a9c2ff"/>
    </g>
    <g id="Group_1397" data-name="Group 1397">
      <path id="Path_2280" data-name="Path 2280" d="M1340.726,2610.85l.433,3.05,78.969,15.954-1.084-12.884-.516-6.12Z" fill="#899bfa"/>
    </g>
    <g id="Group_1398" data-name="Group 1398" opacity="0.5">
      <path id="Path_2281" data-name="Path 2281" d="M1331.9,2663.612c3.21.01,66.052.116,81.945-.088,6.926-.086,8.141-6.158,8.2-10.089l-78.595-14.787c.816,9.005,1.294,14.755,1.3,15.849a9.268,9.268,0,0,1-.156,1.782C1343.279,2663.295,1333.108,2663.612,1331.9,2663.612Z" fill="#899bfa"/>
    </g>
    <g id="Group_1399" data-name="Group 1399">
      <path id="Path_2282" data-name="Path 2282" d="M1603.508,2314.222h-385.08l-62.48,233.332H1545.42Z" fill="#899bfa"/>
    </g>
    <g id="Group_1400" data-name="Group 1400">
      <path id="Path_2283" data-name="Path 2283" d="M1174.11,2537.443h360.552l12.884-51.327,4.985-19.859,2.032-8.1,13.243-52.748.684-2.746,7-27.881,3.132-12.476,2.67-10.642,2.181-8.679,4.083-16.265H1232.2l-4.484,16.265-2.391,8.679-2.934,10.642-3.438,12.476L1196.3,2456.97v0l-1.918,6.964-.894,3.231-15.642,56.74Z" fill="url(#linear-gradient-2)"/>
    </g>
    <g id="Group_1401" data-name="Group 1401">
      <path id="Path_2284" data-name="Path 2284" d="M1317.01,2528.145h185.512l10.192-49.959,3.943-15.71,1.608-6.406,10.476-41.727.541-2.173,5.539-22.055,2.478-9.869,2.112-8.418,1.725-6.865,3.23-12.866H1362.845Z" fill="#5d6cd2"/>
    </g>
    <g id="Group_1402" data-name="Group 1402">
      <path id="Path_2285" data-name="Path 2285" d="M1399.118,2547.554,1531.1,2605.23l14.321-57.676Z" fill="#899bfa"/>
    </g>
    <g id="Group_1469" data-name="Group 1469">
      <g id="Group_1403" data-name="Group 1403">
        <path id="Path_2286" data-name="Path 2286" d="M1098.556,2420.491c-.019-.52-.421-6.118-8.948-6.41,0,0,4.193.5,4.917,2.343,0,0-2.855-2.278-5.18-1.545s-3.69,4.806-3.7,6.146,1.278,5.658,2.754,6.026a4.5,4.5,0,0,0,1.787,0,19.794,19.794,0,0,0-1.145,2.045c-3.4,6.984.106,13.81,2.986,13.055,1.848-.483,2.37,2.669,2.37,2.669l17.948-14.53S1105.749,2416.652,1098.556,2420.491Z" fill="url(#linear-gradient-3)"/>
      </g>
      <g id="Group_1404" data-name="Group 1404">
        <path id="Path_2287" data-name="Path 2287" d="M1147.47,2507.819c-1.5,1.327-5.482-3.231-6.03-3.837a.338.338,0,0,0-.058-.086l1.212-3.376s5.222-.2,6.088.663S1149.114,2506.405,1147.47,2507.819Z" fill="#ffae73"/>
      </g>
      <g id="Group_1405" data-name="Group 1405">
        <path id="Path_2288" data-name="Path 2288" d="M1104.8,2626.251l-3.812,1.419s-16.558-22.965-18.6-43.17c-.364-3.608.383-11.255.1-12.889-.131-.763-.292-1.681-.476-2.733-.538-3.084-1.279-7.3-2.126-12.11-1.948-11.058-4.472-25.2-6.433-35.587l1.027-.33,11.114-3.585,2.3-7.3,8.276-2.178s1.849,3.616,3.5,20.7c.3,2.241.583,4.712.791,7.392a146.317,146.317,0,0,1-.787,29.925c-.38,2.97-1.955,14.641-1.771,18.255C1098.742,2600.581,1104.8,2626.251,1104.8,2626.251Z" fill="url(#linear-gradient-4)"/>
      </g>
      <g id="Group_1406" data-name="Group 1406">
        <path id="Path_2289" data-name="Path 2289" d="M1100.466,2535.884l-17.971,35.727c-.131-.763-.292-1.681-.476-2.733-.538-3.084-1.279-7.3-2.126-12.11-1.948-11.058-4.472-25.2-6.433-35.587l1.027-.33,11.114-3.585,2.3-7.3,8.276-2.178s1.849,3.616,3.5,20.7C1099.98,2530.733,1100.258,2533.2,1100.466,2535.884Z" fill="#3335b0"/>
      </g>
      <g id="Group_1407" data-name="Group 1407">
        <path id="Path_2290" data-name="Path 2290" d="M1092.56,2512.376l-.416-3.567c-6.97,1.851-25.592-5.173-25.592-5.173s-6.752,5.935-5.866,20.162c.433,6.944,1.224,36.452,2.049,45.184.3,3.165-1.756,11.308-2.581,13.506-8.1,21.591,1.248,48.181,1.248,48.181l2.426-.978s15.351-55.656,16.935-61.552c2.992-11.147,5.4-25.648,7-36.841C1087.988,2531.308,1092.56,2512.376,1092.56,2512.376Z" fill="url(#linear-gradient-4)"/>
      </g>
      <g id="Group_1408" data-name="Group 1408">
        <path id="Path_2291" data-name="Path 2291" d="M1097.848,2470.985c-11.982.657-9.349-17.206-8.618-17.115,1.466-.766,4.1-4.485,5.621-10.707l.517.24,8.646,4.065s-.918,2.813-1.6,5.5c-.529,2.107-.909,4.143-.591,4.713.682.276,1.09.451,1.09.451l0,.009C1103.006,2458.367,1101.045,2470.811,1097.848,2470.985Z" fill="#ffae73"/>
      </g>
      <g id="Group_1409" data-name="Group 1409">
        <path id="Path_2292" data-name="Path 2292" d="M1104.014,2447.469s-.919,2.811-1.6,5.506c-5.054-1.41-6.589-6.722-7.051-9.57Z" fill="#f99352"/>
      </g>
      <g id="Group_1410" data-name="Group 1410">
        <path id="Path_2293" data-name="Path 2293" d="M1105.079,2450.446s-12.092-2.8-10.233-10.3,1.549-12.917,9.348-11.448,8.583,4.7,8.572,7.358S1108.272,2450.98,1105.079,2450.446Z" fill="#ffae73"/>
      </g>
      <g id="Group_1411" data-name="Group 1411">
        <path id="Path_2294" data-name="Path 2294" d="M1113.446,2431.795c-1.3-2.72-2.829-2.575-3.786-2.093a8.674,8.674,0,0,0-11.254-.962,14.764,14.764,0,0,1-6.794,7.3s1.858,1.9,7.242,1.86a8.867,8.867,0,0,0,4.8-1.808,28.941,28.941,0,0,1-6.305,4.7c6.74-1.29,11.259-9.092,11.722-9.921a9.754,9.754,0,0,1,1.755,4.154c.124,2.059-.584,6.059.595,6.21C1111.423,2441.236,1115.4,2435.873,1113.446,2431.795Z" fill="url(#linear-gradient-3)"/>
      </g>
      <g id="Group_1412" data-name="Group 1412">
        <path id="Path_2295" data-name="Path 2295" d="M1075.509,2632.651h-19.2a10.543,10.543,0,0,1,.543-5.146c.961-2.131,2.466-3.1,2.106-5.677a6.912,6.912,0,0,0,5.984,2.29c.34.552,2.195,3.5,3.332,4.319C1069.527,2629.338,1075.122,2629.017,1075.509,2632.651Z" fill="url(#linear-gradient-3)"/>
      </g>
      <g id="Group_1413" data-name="Group 1413">
        <path id="Path_2296" data-name="Path 2296" d="M1116.735,2632.651h-19.2s-.717-3.062.543-5.146c1.116-1.844.688-2.895-.138-4.42a7.463,7.463,0,0,0,3.234.609,6.761,6.761,0,0,0,2.855-1,69.015,69.015,0,0,0,5.471,5.747C1110.753,2629.338,1116.349,2629.017,1116.735,2632.651Z" fill="url(#linear-gradient-3)"/>
      </g>
      <g id="Group_1414" data-name="Group 1414">
        <path id="Path_2297" data-name="Path 2297" d="M1066.2,2480.953c1.033-3.348,2.1-6.562,3.18-9.526a130.155,130.155,0,0,1,5.346-12.987c2.522-5.186,13.794-4.86,13.794-4.86a27.581,27.581,0,0,0,8.137,12.7c3.181-1.868,5.549-8.435,5.549-8.435l6.962,3.705h0c.026.025,2.155,1.283,4.033,6.684,2.794,8.036,7.326,19.445,10.471,22.936a23.937,23.937,0,0,0,5.483,3.351v0c.056.084.1.127.127.127a25.749,25.749,0,0,1-2.15,4.033,10.977,10.977,0,0,1-3.842,3.784c-1.185-.573-3.323-1.415-4.229-1.972-3.277-2-8.158-4.891-11.975-10.977l-1.065,14.312-1.926,25.89c-2.962.922-5.782,1.642-8.456,2.194a31.635,31.635,0,0,0-.878-4.766c.031,1.361-1.562,3.967-2.506,5.384-24.587,3.939-36.114-6.786-36.114-6.786C1057.094,2516.255,1061.236,2497.052,1066.2,2480.953Z" fill="#899bfa"/>
      </g>
      <g id="Group_1415" data-name="Group 1415">
        <path id="Path_2298" data-name="Path 2298" d="M1091,2452.134s-2.045.138-2.484,1.446c0,0,2.669,10.745,8.135,12.7Z" fill="#6f7deb"/>
      </g>
      <g id="Group_1416" data-name="Group 1416">
        <path id="Path_2299" data-name="Path 2299" d="M1096.652,2466.281s5.223-9.425,5.2-10.7c0,0,1.985,1.759,1.854,3.065C1103.709,2458.648,1099.31,2465.694,1096.652,2466.281Z" fill="#6f7deb"/>
      </g>
      <g id="Group_1417" data-name="Group 1417">
        <path id="Path_2300" data-name="Path 2300" d="M1082.651,2462.458c.147.509,10.806,25.981,20.365,35.371,4.184,4.111-9.149,2.923-9.276,2.16S1082.651,2462.458,1082.651,2462.458Z" fill="#6f7deb"/>
      </g>
      <g id="Group_1418" data-name="Group 1418">
        <path id="Path_2301" data-name="Path 2301" d="M1105.683,2504.639l-.912,14.37c-29.153-6.772-26.708-53.2-26.708-53.2l14.64,30.229,12.848,8.4S1105.6,2504.5,1105.683,2504.639Z" fill="#6f7deb"/>
      </g>
      <g id="Group_1419" data-name="Group 1419">
        <path id="Path_2302" data-name="Path 2302" d="M1129.316,2494.607c-.007.031-.02.046-.038.046.011-.023.018-.041.023-.053C1129.324,2494.554,1129.329,2494.554,1129.316,2494.607Z" fill="#a9c2ff"/>
      </g>
      <g id="Group_1464" data-name="Group 1464">
        <g id="Group_1420" data-name="Group 1420">
          <path id="Path_2303" data-name="Path 2303" d="M1114.9,2474.819l-5.805,25.874c-.924,4.12,2.2,7.46,6.97,7.46h139.387c4.775,0,9.393-3.34,10.318-7.46l5.805-25.874a4.3,4.3,0,0,0,.084-.472c.6-3.9-2.463-6.987-7.054-6.987H1125.214c-4.591,0-9.038,3.085-10.19,6.987C1114.971,2474.506,1114.932,2474.661,1114.9,2474.819Z" fill="#ff912b"/>
        </g>
        <g id="Group_1463" data-name="Group 1463">
          <g id="Group_1427" data-name="Group 1427">
            <g id="Group_1422" data-name="Group 1422">
              <g id="Group_1421" data-name="Group 1421">
                <path id="Path_2304" data-name="Path 2304" d="M1255.138,2496.489h1.366l3.612-16.1h-1.367Z" fill="#e8f2fa"/>
              </g>
            </g>
            <g id="Group_1424" data-name="Group 1424">
              <g id="Group_1423" data-name="Group 1423">
                <path id="Path_2305" data-name="Path 2305" d="M1245.717,2487.035h9.8l1.022-4.556h-9.8Z" fill="#e8f2fa"/>
              </g>
            </g>
            <g id="Group_1426" data-name="Group 1426">
              <g id="Group_1425" data-name="Group 1425">
                <path id="Path_2306" data-name="Path 2306" d="M1241.152,2493.565h12.9l1.022-4.556h-12.9Z" fill="#e8f2fa"/>
              </g>
            </g>
          </g>
          <g id="Group_1434" data-name="Group 1434">
            <g id="Group_1429" data-name="Group 1429">
              <g id="Group_1428" data-name="Group 1428">
                <path id="Path_2307" data-name="Path 2307" d="M1223.805,2496.489h1.367l3.612-16.1h-1.367Z" fill="#e8f2fa"/>
              </g>
            </g>
            <g id="Group_1431" data-name="Group 1431">
              <g id="Group_1430" data-name="Group 1430">
                <path id="Path_2308" data-name="Path 2308" d="M1221.712,2487.035h9.8l1.022-4.556h-9.8Z" fill="#e8f2fa"/>
              </g>
            </g>
            <g id="Group_1433" data-name="Group 1433">
              <g id="Group_1432" data-name="Group 1432">
                <path id="Path_2309" data-name="Path 2309" d="M1218.7,2493.565h12.9l1.022-4.556h-12.9Z" fill="#e8f2fa"/>
              </g>
            </g>
          </g>
          <g id="Group_1441" data-name="Group 1441">
            <g id="Group_1436" data-name="Group 1436">
              <g id="Group_1435" data-name="Group 1435">
                <path id="Path_2310" data-name="Path 2310" d="M1192.469,2496.489h1.367l3.612-16.1h-1.367Z" fill="#e8f2fa"/>
              </g>
            </g>
            <g id="Group_1438" data-name="Group 1438">
              <g id="Group_1437" data-name="Group 1437">
                <path id="Path_2311" data-name="Path 2311" d="M1197.71,2487.035h9.8l1.022-4.556h-9.8Z" fill="#e8f2fa"/>
              </g>
            </g>
            <g id="Group_1440" data-name="Group 1440">
              <g id="Group_1439" data-name="Group 1439">
                <path id="Path_2312" data-name="Path 2312" d="M1196.245,2493.565h12.9l1.022-4.556h-12.9Z" fill="#e8f2fa"/>
              </g>
            </g>
          </g>
          <g id="Group_1448" data-name="Group 1448">
            <g id="Group_1443" data-name="Group 1443">
              <g id="Group_1442" data-name="Group 1442">
                <path id="Path_2313" data-name="Path 2313" d="M1172.419,2481.692h16.1l.307-1.367h-16.1Z" fill="#e8f2fa"/>
              </g>
            </g>
            <g id="Group_1445" data-name="Group 1445">
              <g id="Group_1444" data-name="Group 1444">
                <path id="Path_2314" data-name="Path 2314" d="M1181.585,2482.975l-2.2,9.8h4.556l2.2-9.8Z" fill="#e8f2fa"/>
              </g>
            </g>
            <g id="Group_1447" data-name="Group 1447">
              <g id="Group_1446" data-name="Group 1446">
                <path id="Path_2315" data-name="Path 2315" d="M1175.055,2482.975l-2.893,12.9h4.556l2.894-12.9Z" fill="#e8f2fa"/>
              </g>
            </g>
          </g>
          <g id="Group_1455" data-name="Group 1455">
            <g id="Group_1450" data-name="Group 1450">
              <g id="Group_1449" data-name="Group 1449">
                <path id="Path_2316" data-name="Path 2316" d="M1147.082,2489.123h16.1l.307-1.366h-16.1Z" fill="#e8f2fa"/>
              </g>
            </g>
            <g id="Group_1452" data-name="Group 1452">
              <g id="Group_1451" data-name="Group 1451">
                <path id="Path_2317" data-name="Path 2317" d="M1157.788,2483.542l-2.2,9.8h4.556l2.2-9.8Z" fill="#e8f2fa"/>
              </g>
            </g>
            <g id="Group_1454" data-name="Group 1454">
              <g id="Group_1453" data-name="Group 1453">
                <path id="Path_2318" data-name="Path 2318" d="M1151.605,2481.992l-2.894,12.9h4.556l2.893-12.9Z" fill="#e8f2fa"/>
              </g>
            </g>
          </g>
          <g id="Group_1462" data-name="Group 1462">
            <g id="Group_1457" data-name="Group 1457">
              <g id="Group_1456" data-name="Group 1456">
                <path id="Path_2319" data-name="Path 2319" d="M1121.731,2496.612h16.1l.307-1.366h-16.1Z" fill="#e8f2fa"/>
              </g>
            </g>
            <g id="Group_1459" data-name="Group 1459">
              <g id="Group_1458" data-name="Group 1458">
                <path id="Path_2320" data-name="Path 2320" d="M1133.889,2484.051l-2.2,9.8h4.556l2.2-9.8Z" fill="#e8f2fa"/>
              </g>
            </g>
            <g id="Group_1461" data-name="Group 1461">
              <g id="Group_1460" data-name="Group 1460">
                <path id="Path_2321" data-name="Path 2321" d="M1128.055,2480.951l-2.893,12.9h4.556l2.894-12.9Z" fill="#e8f2fa"/>
              </g>
            </g>
          </g>
        </g>
      </g>
      <g id="Group_1468" data-name="Group 1468">
        <g id="Group_1465" data-name="Group 1465">
          <path id="Path_2322" data-name="Path 2322" d="M1128.9,2505.837a18.615,18.615,0,0,1-5.545-.672s4.63-.066,3.646-1.529c-.179-.266-2.48-.065-5.05-.065a8.955,8.955,0,0,0-3.524,1.511c-1.862-.246-3.554-.607-4.1-.725a.916.916,0,0,1-.2-.058l-1.644,4.79s.346.086.952.2a64.462,64.462,0,0,1,7.645,2.338,7.648,7.648,0,0,0,8.6-1.847,4.8,4.8,0,0,0,1.524-3.016C1131.141,2505.8,1129.865,2505.842,1128.9,2505.837Z" fill="#ffae73"/>
        </g>
        <g id="Group_1466" data-name="Group 1466">
          <path id="Path_2323" data-name="Path 2323" d="M1117.726,2506.205l-1.01,3.692s-1.269-.232-3.29-.606c-.606-.117-.951-.2-.951-.2-1.616-.316-3.548-.748-5.654-1.211h-.031c-3.6-.865-7.643-1.9-11.048-3.059-.3-.107-.606-.214-.9-.32-2.013-.743,1.878-10.959,3.638-9.69.466.339.967.687,1.492,1.046,2.918,1.982,6.633,4.191,9.933,6.051,1.616.923,3.145,1.761,4.415,2.453C1116.37,2505.482,1117.726,2506.205,1117.726,2506.205Z" fill="#ffae73"/>
        </g>
        <g id="Group_1467" data-name="Group 1467">
          <path id="Path_2324" data-name="Path 2324" d="M1099.974,2495.854a11.9,11.9,0,0,1-6.319,10.369c-7.549-2.725-11.587-13.982-14.7-21.715-.433-1.066-.837-2.135-1.239-3.173a78.749,78.749,0,0,1-3.29-10.964c-.433-1.962,7.961-11.857,9.03-9.519,1.644,3.72,3.374,8.54,4.99,13.328.9,2.626,1.761,5.252,2.626,7.674.491,1.471.982,2.855,1.443,4.125a39.872,39.872,0,0,0,2.422,5.626,13.975,13.975,0,0,0,3.549,3.2C1098.948,2495.147,1099.449,2495.5,1099.974,2495.854Z" fill="#899bfa"/>
        </g>
      </g>
    </g>
    <g id="Group_1470" data-name="Group 1470">
      <path id="Path_2325" data-name="Path 2325" d="M1227.717,2342.987h355.758l4.083-16.265H1232.2Z" fill="#383ab8"/>
    </g>
    <g id="Group_1474" data-name="Group 1474">
      <g id="Group_1471" data-name="Group 1471">
        <path id="Path_2326" data-name="Path 2326" d="M1565.449,2335a1.971,1.971,0,0,0,2.061,2.66,4.09,4.09,0,0,0,3.738-2.619,1.971,1.971,0,0,0-2.061-2.66A4.09,4.09,0,0,0,1565.449,2335Z" fill="#e8f2fa"/>
      </g>
      <g id="Group_1472" data-name="Group 1472">
        <path id="Path_2327" data-name="Path 2327" d="M1553.452,2334.918a1.97,1.97,0,0,0,2.061,2.66,4.088,4.088,0,0,0,3.737-2.62,1.97,1.97,0,0,0-2.06-2.659A4.087,4.087,0,0,0,1553.452,2334.918Z" fill="#e8f2fa"/>
      </g>
      <g id="Group_1473" data-name="Group 1473">
        <path id="Path_2328" data-name="Path 2328" d="M1541.455,2334.835a1.969,1.969,0,0,0,2.06,2.659,4.088,4.088,0,0,0,3.738-2.619,1.97,1.97,0,0,0-2.061-2.659A4.086,4.086,0,0,0,1541.455,2334.835Z" fill="#e8f2fa"/>
      </g>
    </g>
    <g id="Group_1475" data-name="Group 1475">
      <path id="Path_2329" data-name="Path 2329" d="M1537.3,2380.246s-41.875.159-72.241,23.438-25.989,44.167-51.186,49.4c-41.29,8.58-15.657-35.487-69.275-30.9l-27.587,105.961h185.512l14.136-65.668Z" fill="#ff912b"/>
    </g>
    <g id="Group_1476" data-name="Group 1476">
      <path id="Path_2330" data-name="Path 2330" d="M1404.313,2454.586a47.876,47.876,0,0,0,9.637-1.125c13.907-2.89,19.034-10.692,25.526-20.569,5.379-8.185,12.073-18.371,25.814-28.905,8.626-6.613,23.844-15.517,47.353-20.378a138.819,138.819,0,0,1,24.657-2.981l0-.764a139.724,139.724,0,0,0-24.81,3c-13.054,2.7-31.919,8.451-47.663,20.52-13.843,10.613-20.577,20.859-25.988,29.091-6.644,10.11-11.445,17.415-25.043,20.241-19.363,4.024-23.741-3.586-28.812-12.4-5.649-9.814-12.055-20.941-40.417-18.514l.065.761c27.884-2.384,34.155,8.517,39.69,18.134,2.566,4.458,4.989,8.669,9.289,11.27A20.171,20.171,0,0,0,1404.313,2454.586Z" fill="#fff"/>
    </g>
    <g id="Group_1477" data-name="Group 1477">
      <path id="Path_2331" data-name="Path 2331" d="M1527.52,2418.964l-10.646,42.42-14.352,66.76H1317.01l9.354-34.664s27.461-15.306,64.7-1.966,78.468,1.029,81.122-28.977C1475.18,2428.7,1506.266,2412.407,1527.52,2418.964Z" fill="#fc7400"/>
    </g>
    <g id="Group_1478" data-name="Group 1478">
      <path id="Path_2332" data-name="Path 2332" d="M1480.65,2439.034c10.663-16.487,30.327-24.774,46.758-19.7l.225-.73c-16.751-5.168-36.779,3.252-47.624,20.02Z" fill="#fff"/>
    </g>
    <g id="Group_1483" data-name="Group 1483">
      <g id="Group_1479" data-name="Group 1479">
        <rect id="Rectangle_160" data-name="Rectangle 160" width="6.059" height="6.059" transform="translate(1417.586 2455.806) rotate(174.102)" fill="#fff"/>
      </g>
      <g id="Group_1480" data-name="Group 1480">
        <rect id="Rectangle_161" data-name="Rectangle 161" width="103.728" height="1.004" transform="translate(1359.778 2463.833) rotate(-11.733)" fill="#fff"/>
      </g>
      <g id="Group_1481" data-name="Group 1481">
        <path id="Path_2333" data-name="Path 2333" d="M1463.172,2443.053a1.74,1.74,0,1,0-1.552,1.91A1.74,1.74,0,0,0,1463.172,2443.053Z" fill="#fff"/>
      </g>
      <g id="Group_1482" data-name="Group 1482">
        <path id="Path_2334" data-name="Path 2334" d="M1361.611,2464.146a1.74,1.74,0,1,0-1.552,1.91A1.74,1.74,0,0,0,1361.611,2464.146Z" fill="#fff"/>
      </g>
    </g>
    <g id="Group_1488" data-name="Group 1488">
      <g id="Group_1484" data-name="Group 1484">
        <rect id="Rectangle_162" data-name="Rectangle 162" width="6.059" height="6.059" transform="matrix(-0.728, 0.686, -0.686, -0.728, 1489.894, 2391.274)" fill="#fff"/>
      </g>
      <g id="Group_1485" data-name="Group 1485">
        <rect id="Rectangle_163" data-name="Rectangle 163" width="48.614" height="1.004" transform="matrix(0.708, -0.706, 0.706, 0.708, 1468.69, 2407.144)" fill="#fff"/>
      </g>
      <g id="Group_1486" data-name="Group 1486">
        <path id="Path_2335" data-name="Path 2335" d="M1504.838,2372.1a1.74,1.74,0,1,0-.255,2.447A1.74,1.74,0,0,0,1504.838,2372.1Z" fill="#fff"/>
      </g>
      <g id="Group_1487" data-name="Group 1487">
        <path id="Path_2336" data-name="Path 2336" d="M1470.4,2406.4a1.74,1.74,0,1,0-.255,2.447A1.738,1.738,0,0,0,1470.4,2406.4Z" fill="#fff"/>
      </g>
    </g>
    <g id="Group_1493" data-name="Group 1493">
      <g id="Group_1489" data-name="Group 1489">
        <rect id="Rectangle_164" data-name="Rectangle 164" width="6.059" height="6.059" transform="translate(1367.862 2428.921) rotate(-113.004)" fill="#fff"/>
      </g>
      <g id="Group_1490" data-name="Group 1490">
        <rect id="Rectangle_165" data-name="Rectangle 165" width="1.004" height="31.006" transform="matrix(0.909, -0.416, 0.416, 0.909, 1362.448, 2410.992)" fill="#fff"/>
      </g>
      <g id="Group_1491" data-name="Group 1491">
        <path id="Path_2337" data-name="Path 2337" d="M1376.366,2440.625a1.74,1.74,0,1,0-2.207-1.088A1.741,1.741,0,0,0,1376.366,2440.625Z" fill="#fff"/>
      </g>
      <g id="Group_1492" data-name="Group 1492">
        <path id="Path_2338" data-name="Path 2338" d="M1363.468,2412.43a1.74,1.74,0,1,0-2.207-1.089A1.74,1.74,0,0,0,1363.468,2412.43Z" fill="#fff"/>
      </g>
    </g>
    <g id="Group_1518" data-name="Group 1518">
      <g id="Group_1494" data-name="Group 1494">
        <path id="Path_2339" data-name="Path 2339" d="M1338.289,2361.872l-9.429,38.968c-.4,1.668,1.17,3.019,3.515,3.019h96.987c2.345,0,4.573-1.351,4.976-3.019l9.429-38.968c.4-1.668-1.171-3.019-3.515-3.019h-96.987C1340.92,2358.853,1338.692,2360.2,1338.289,2361.872Z" fill="#cedfff"/>
      </g>
      <g id="Group_1517" data-name="Group 1517">
        <g id="Group_1497" data-name="Group 1497">
          <g id="Group_1495" data-name="Group 1495">
            <path id="Path_2340" data-name="Path 2340" d="M1419.182,2384.667H1429.5l2.5-10.322H1421.68Z" fill="#25468f"/>
          </g>
          <g id="Group_1496" data-name="Group 1496">
            <path id="Path_2341" data-name="Path 2341" d="M1412.772,2389.828h10.322l2.5-10.322H1415.27Z" fill="#25468f"/>
          </g>
        </g>
        <g id="Group_1502" data-name="Group 1502">
          <g id="Group_1498" data-name="Group 1498">
            <path id="Path_2342" data-name="Path 2342" d="M1395.084,2384.667h10.322l2.5-10.322h-10.322Z" fill="#25468f"/>
          </g>
          <g id="Group_1501" data-name="Group 1501">
            <g id="Group_1499" data-name="Group 1499">
              <path id="Path_2343" data-name="Path 2343" d="M1388.674,2389.828H1399l2.5-10.322h-10.322Z" fill="#6b98f6"/>
            </g>
            <g id="Group_1500" data-name="Group 1500">
              <path id="Path_2344" data-name="Path 2344" d="M1390.838,2379.065h11.2l-2.711,11.2h-11.2Zm10.109.882h-9.441l-2.285,9.44h9.442Z" fill="#183a76"/>
            </g>
          </g>
        </g>
        <g id="Group_1509" data-name="Group 1509">
          <g id="Group_1503" data-name="Group 1503">
            <path id="Path_2345" data-name="Path 2345" d="M1370.986,2384.667h10.322l2.5-10.322h-10.322Z" fill="#6b98f6"/>
          </g>
          <g id="Group_1504" data-name="Group 1504">
            <path id="Path_2346" data-name="Path 2346" d="M1373.15,2373.9h11.2l-2.711,11.2h-11.2Zm10.109.881h-9.441l-2.285,9.441h9.442Z" fill="#25468f"/>
          </g>
          <g id="Group_1505" data-name="Group 1505">
            <path id="Path_2347" data-name="Path 2347" d="M1364.576,2389.828H1374.9l2.5-10.322h-10.322Z" fill="#6b98f6"/>
          </g>
          <g id="Group_1506" data-name="Group 1506">
            <path id="Path_2348" data-name="Path 2348" d="M1366.74,2379.065h11.2l-2.711,11.2h-11.2Zm10.109.882h-9.442l-2.284,9.44h9.441Z" fill="#25468f"/>
          </g>
          <g id="Group_1508" data-name="Group 1508">
            <g id="Group_1507" data-name="Group 1507">
              <path id="Path_2349" data-name="Path 2349" d="M1370.441,2385.086h6.079l1.457-6.024H1371.9Z" fill="#25468f"/>
            </g>
          </g>
        </g>
        <g id="Group_1516" data-name="Group 1516">
          <g id="Group_1511" data-name="Group 1511">
            <g id="Group_1510" data-name="Group 1510">
              <path id="Path_2350" data-name="Path 2350" d="M1346.888,2384.667h10.322l2.5-10.322h-10.322Z" fill="#25468f"/>
            </g>
          </g>
          <g id="Group_1513" data-name="Group 1513">
            <g id="Group_1512" data-name="Group 1512">
              <path id="Path_2351" data-name="Path 2351" d="M1340.478,2389.828H1350.8l2.5-10.322h-10.322Z" fill="#25468f"/>
            </g>
          </g>
          <g id="Group_1515" data-name="Group 1515">
            <g id="Group_1514" data-name="Group 1514">
              <path id="Path_2352" data-name="Path 2352" d="M1347.18,2384.417h4.729l1.134-4.686h-4.729Z" fill="#6b98f6"/>
            </g>
          </g>
        </g>
      </g>
    </g>
    <g id="Group_1550" data-name="Group 1550">
      <g id="Group_1519" data-name="Group 1519">
        <path id="Path_2353" data-name="Path 2353" d="M1606.616,2484.926h35.741a11.378,11.378,0,0,0,10.542-8.631l26.891-121.413c1.055-4.766-1.953-8.63-6.719-8.63H1637.33a11.378,11.378,0,0,0-10.542,8.63L1599.9,2476.295C1598.841,2481.062,1601.85,2484.926,1606.616,2484.926Z" fill="url(#linear-gradient-9)"/>
      </g>
      <g id="Group_1521" data-name="Group 1521">
        <g id="Group_1520" data-name="Group 1520">
          <rect id="Rectangle_166" data-name="Rectangle 166" width="53.001" height="0.229" transform="translate(1622.628 2373.552)" fill="#a9c2ff"/>
        </g>
      </g>
      <g id="Group_1523" data-name="Group 1523">
        <g id="Group_1522" data-name="Group 1522">
          <rect id="Rectangle_167" data-name="Rectangle 167" width="53.002" height="0.23" transform="translate(1616.291 2402.161)" fill="#a9c2ff"/>
        </g>
      </g>
      <g id="Group_1525" data-name="Group 1525">
        <g id="Group_1524" data-name="Group 1524">
          <rect id="Rectangle_168" data-name="Rectangle 168" width="53.002" height="0.23" transform="translate(1609.955 2430.77)" fill="#a9c2ff"/>
        </g>
      </g>
      <g id="Group_1526" data-name="Group 1526">
        <path id="Path_2354" data-name="Path 2354" d="M1643.206,2365.117c-.068-.613,2.672-11.14,2.672-11.14l-9.715,7.869,4.774-.17Z" fill="#fff"/>
      </g>
      <g id="Group_1529" data-name="Group 1529">
        <g id="Group_1528" data-name="Group 1528">
          <g id="Group_1527" data-name="Group 1527">
            <path id="Path_2355" data-name="Path 2355" d="M1618.091,2453.688h18.824l-4.164,18.8h-18.824Zm17.519,1.046h-16.679l-3.7,16.705h16.679Z" fill="#cedfff"/>
          </g>
        </g>
      </g>
      <g id="Group_1530" data-name="Group 1530">
        <path id="Path_2356" data-name="Path 2356" d="M1627.452,2461.8H1645.2l3.932-17.752h-17.752Z" fill="#ff7536"/>
      </g>
      <g id="Group_1532" data-name="Group 1532">
        <g id="Group_1531" data-name="Group 1531">
          <rect id="Rectangle_169" data-name="Rectangle 169" width="1.517" height="22.497" transform="translate(1617.912 2454.677) rotate(-37.902)" fill="#ff7536"/>
        </g>
      </g>
      <g id="Group_1549" data-name="Group 1549">
        <g id="Group_1533" data-name="Group 1533">
          <path id="Path_2357" data-name="Path 2357" d="M1667.1,2365.117c-.069-.613,2.671-11.14,2.671-11.14l-9.715,7.869,4.774-.17Z" fill="#cedfff"/>
        </g>
        <g id="Group_1540" data-name="Group 1540">
          <g id="Group_1535" data-name="Group 1535">
            <g id="Group_1534" data-name="Group 1534">
              <path id="Path_2358" data-name="Path 2358" d="M1663.342,2385.972h1.431l.566-2.555h-9.709l-.543,2.453h1.431l.227-1.022h6.848Z" fill="#cedfff"/>
            </g>
          </g>
          <g id="Group_1537" data-name="Group 1537">
            <g id="Group_1536" data-name="Group 1536">
              <path id="Path_2359" data-name="Path 2359" d="M1657.822,2392.206h1.431l1.788-8.074h-1.431Z" fill="#cedfff"/>
            </g>
          </g>
          <g id="Group_1539" data-name="Group 1539">
            <g id="Group_1538" data-name="Group 1538">
              <path id="Path_2360" data-name="Path 2360" d="M1656.533,2392.717h3.781l.317-1.431h-3.781Z" fill="#cedfff"/>
            </g>
          </g>
        </g>
        <g id="Group_1542" data-name="Group 1542">
          <g id="Group_1541" data-name="Group 1541">
            <path id="Path_2361" data-name="Path 2361" d="M1637.17,2393.609l1.292-.931-6.821-10.731-1.292.931Z" fill="#cedfff"/>
          </g>
        </g>
        <g id="Group_1547" data-name="Group 1547">
          <g id="Group_1544" data-name="Group 1544">
            <g id="Group_1543" data-name="Group 1543">
              <path id="Path_2362" data-name="Path 2362" d="M1649.7,2413.666a6.536,6.536,0,0,1,6.049-4.953,3.856,3.856,0,0,1,3.856,4.953,6.538,6.538,0,0,1-6.05,4.952A3.854,3.854,0,0,1,1649.7,2413.666Zm1.308,0a2.837,2.837,0,0,0,2.837,3.644,4.811,4.811,0,0,0,4.451-3.644,2.836,2.836,0,0,0-2.837-3.644A4.81,4.81,0,0,0,1651.013,2413.666Z" fill="#cedfff"/>
            </g>
          </g>
          <g id="Group_1546" data-name="Group 1546">
            <g id="Group_1545" data-name="Group 1545">
              <path id="Path_2363" data-name="Path 2363" d="M1644.136,2422.917a.813.813,0,0,0,.515-.2l6.585-5.544a.685.685,0,0,0,.189-.925.657.657,0,0,0-.929.016l-6.585,5.544a.684.684,0,0,0-.189.925A.52.52,0,0,0,1644.136,2422.917Z" fill="#cedfff"/>
            </g>
          </g>
        </g>
        <g id="Group_1548" data-name="Group 1548">
          <path id="Path_2364" data-name="Path 2364" d="M1629.87,2408.257l-2.452,4.487H1622.7l3.2,2.773-2.452,4.487,4.431-2.773,3.2,2.773-.464-4.487,4.431-2.773h-4.718Z" fill="#cedfff"/>
        </g>
      </g>
    </g>
    <g id="Group_1579" data-name="Group 1579">
      <g id="Group_1551" data-name="Group 1551">
        <path id="Path_2365" data-name="Path 2365" d="M1174.225,2368.982s-.129,7.07.932,6.939,2.5-5.928,2.512-5.841-.48,6.1.853,6.4,2.688-6.361,2.688-6.361-.9,5.716.044,5.868,2.415-5.391,2.8-5.407-1.244,4.754-.1,5,3.694-6.466,2.829-7.321-2.21.06-2.21.06-1.661-1.232-2.938-.534c0,0-2.992-.6-3.891.729A2.364,2.364,0,0,0,1174.225,2368.982Z" fill="#fa8b79"/>
      </g>
      <g id="Group_1578" data-name="Group 1578">
        <g id="Group_1552" data-name="Group 1552">
          <path id="Path_2366" data-name="Path 2366" d="M1154.929,2341.9l-24.254,87.452c-1.038,3.742,1.329,6.776,5.287,6.776h163.71a9.86,9.86,0,0,0,9.045-6.776l24.254-87.452c1.038-3.742-1.329-6.776-5.287-6.776h-163.71A9.861,9.861,0,0,0,1154.929,2341.9Z" fill="#cedfff"/>
        </g>
        <g id="Group_1557" data-name="Group 1557">
          <g id="Group_1553" data-name="Group 1553">
            <path id="Path_2367" data-name="Path 2367" d="M1282.247,2381.356h21.142l5.864-21.142H1288.11Z" fill="#b0c0ff"/>
          </g>
          <g id="Group_1554" data-name="Group 1554">
            <path id="Path_2368" data-name="Path 2368" d="M1288.861,2376.178h10.786l2.991-10.786h-10.786Z" fill="#5158bf"/>
          </g>
          <g id="Group_1555" data-name="Group 1555">
            <rect id="Rectangle_170" data-name="Rectangle 170" width="1.66" height="26.085" transform="matrix(0.811, -0.586, 0.586, 0.811, 1287.438, 2360.699)" fill="#ff7536"/>
          </g>
          <g id="Group_1556" data-name="Group 1556">
            <path id="Path_2369" data-name="Path 2369" d="M1297.295,2369.895h21.142l5.864-21.143h-21.143Z" fill="#ff7536"/>
          </g>
        </g>
        <g id="Group_1570" data-name="Group 1570">
          <g id="Group_1558" data-name="Group 1558">
            <path id="Path_2370" data-name="Path 2370" d="M1285.284,2406.3h17l4.714-17h-17Z" fill="#ff7536"/>
          </g>
          <g id="Group_1559" data-name="Group 1559">
            <path id="Path_2371" data-name="Path 2371" d="M1268.444,2406.3h17l4.714-17h-17Z" fill="#fc7600"/>
          </g>
          <g id="Group_1560" data-name="Group 1560">
            <path id="Path_2372" data-name="Path 2372" d="M1251.447,2406.3h17l4.714-17h-17Z" fill="#ff8111"/>
          </g>
          <g id="Group_1561" data-name="Group 1561">
            <path id="Path_2373" data-name="Path 2373" d="M1234.449,2406.3h17l4.714-17h-17Z" fill="#6b98f6"/>
          </g>
          <g id="Group_1562" data-name="Group 1562">
            <path id="Path_2374" data-name="Path 2374" d="M1217.452,2406.3h17l4.714-17h-17Z" fill="#899bfa"/>
          </g>
          <g id="Group_1563" data-name="Group 1563">
            <path id="Path_2375" data-name="Path 2375" d="M1200.454,2406.3h17l4.714-17h-17Z" fill="#697ee3"/>
          </g>
          <g id="Group_1564" data-name="Group 1564">
            <path id="Path_2376" data-name="Path 2376" d="M1183.456,2406.3h17l4.714-17h-17Z" fill="#5158bf"/>
          </g>
          <g id="Group_1565" data-name="Group 1565">
            <path id="Path_2377" data-name="Path 2377" d="M1166.459,2406.3h17l4.714-17h-17Z" fill="#25468f"/>
          </g>
          <g id="Group_1566" data-name="Group 1566">
            <path id="Path_2378" data-name="Path 2378" d="M1280.57,2423.3h17l4.714-17h-17Z" fill="#a1b3ff"/>
          </g>
          <g id="Group_1567" data-name="Group 1567">
            <path id="Path_2379" data-name="Path 2379" d="M1263.73,2423.3h17l4.714-17h-17Z" fill="#899bfa"/>
          </g>
          <g id="Group_1568" data-name="Group 1568">
            <path id="Path_2380" data-name="Path 2380" d="M1246.733,2423.3h17l4.714-17h-17Z" fill="#5158bf"/>
          </g>
          <g id="Group_1569" data-name="Group 1569">
            <path id="Path_2381" data-name="Path 2381" d="M1229.735,2423.3h17l4.714-17h-17Z" fill="#25468f"/>
          </g>
        </g>
        <g id="Group_1571" data-name="Group 1571">
          <path id="Path_2382" data-name="Path 2382" d="M1165.625,2356.045h89.037a3.16,3.16,0,0,0,2.841-2.225h0a1.638,1.638,0,0,0-1.607-2.225h-89.037a3.161,3.161,0,0,0-2.842,2.225h0A1.638,1.638,0,0,0,1165.625,2356.045Z" fill="#ff8111"/>
        </g>
        <g id="Group_1572" data-name="Group 1572">
          <path id="Path_2383" data-name="Path 2383" d="M1162.509,2367.279h89.037a3.161,3.161,0,0,0,2.842-2.225h0a1.637,1.637,0,0,0-1.608-2.224h-89.037a3.162,3.162,0,0,0-2.842,2.224h0A1.638,1.638,0,0,0,1162.509,2367.279Z" fill="#6b98f6"/>
        </g>
        <g id="Group_1573" data-name="Group 1573">
          <path id="Path_2384" data-name="Path 2384" d="M1159.394,2378.513h89.037a3.16,3.16,0,0,0,2.841-2.225h0a1.637,1.637,0,0,0-1.607-2.224h-89.038a3.16,3.16,0,0,0-2.841,2.224h0A1.638,1.638,0,0,0,1159.394,2378.513Z" fill="#5158bf"/>
        </g>
        <g id="Group_1577" data-name="Group 1577">
          <g id="Group_1574" data-name="Group 1574">
            <path id="Path_2385" data-name="Path 2385" d="M1268.132,2356.563h-1.057l.581-2.1h-1.306l-2.076,2.1h-1.246l2.255-2.277a1.329,1.329,0,0,1-.929-1.821,2.688,2.688,0,0,1,2.765-1.916h2.681Zm-.216-3.033.56-2.019h-1.538a1.427,1.427,0,0,0-1.522,1c-.174.628.2,1.023.953,1.023Z" fill="#5158bf"/>
          </g>
          <g id="Group_1575" data-name="Group 1575">
            <path id="Path_2386" data-name="Path 2386" d="M1262.726,2368.021a2.91,2.91,0,0,1-2.249-.937l.7-2.526h2.56l-.255.919h-1.538l-.312,1.126a1.928,1.928,0,0,0,1.326.455,2.825,2.825,0,0,0,2.64-2.148c.324-1.168-.248-2.139-1.357-2.139a3.045,3.045,0,0,0-1.862.645l-.449-.8a4.145,4.145,0,0,1,2.538-.817,2.259,2.259,0,0,1,2.239,3.11A4.2,4.2,0,0,1,1262.726,2368.021Z" fill="#5158bf"/>
          </g>
          <g id="Group_1576" data-name="Group 1576">
            <path id="Path_2387" data-name="Path 2387" d="M1261.679,2379.83H1258.9c-1.34,0-2.065-.576-1.768-1.65a2.13,2.13,0,0,1,1.6-1.478,1.068,1.068,0,0,1-.487-1.34,1.893,1.893,0,0,1,.685-1.014,2.762,2.762,0,0,1,1.72-.532h2.7Zm-.075-3.48.443-1.6h-1.52a1.182,1.182,0,0,0-1.269.765c-.158.567.224.833.9.833Zm-.7,2.543.457-1.649h-1.675c-.834,0-1.321.3-1.461.807-.155.559.2.842.926.842Z" fill="#5158bf"/>
          </g>
        </g>
      </g>
    </g>
    <g id="Group_1605" data-name="Group 1605">
      <g id="Group_1600" data-name="Group 1600">
        <g id="Group_1580" data-name="Group 1580">
          <path id="Path_2388" data-name="Path 2388" d="M1494.24,2352.521a1.674,1.674,0,0,1,.3,1.789l-.005.009c-.431,1.193-1.857,2.525-3.513,3.855-.212.171-.4.326-.564.47-.043.038-.086.075-.127.113l-.1.088c-1.545,1.424-.963,1.75-3.738,4.639-3.164,3.292-5.342,3.351-5.962,3.051-.524-.255.541-2,1.721-3.964.058-.094.114-.19.172-.286.157-.261.314-.525.47-.788,1.383-2.361,1.028-3.469.7-6.984-.267-2.856-4.444-15.956-4.444-15.956l6.063-1.045s1.826,10.432,3.838,12.038c1.076.857,2.28.867,3.314,1.5.073.044.144.09.215.136A7.985,7.985,0,0,1,1494.24,2352.521Z" fill="#ffae73"/>
        </g>
        <g id="Group_1581" data-name="Group 1581">
          <path id="Path_2389" data-name="Path 2389" d="M1494.24,2352.521a1.674,1.674,0,0,1,.3,1.789l-.005.009a12.87,12.87,0,0,1-3.519,3.843c-.209.173-.394.333-.558.482-.043.038-.086.075-.127.113l-.1.088c-1.545,1.424-.963,1.75-3.738,4.639-3.164,3.292-5.342,3.351-5.962,3.051-.524-.255.541-2,1.721-3.964a13.472,13.472,0,0,0,5.64-4.155c1.836-2.343,3.082-5.328,4.331-7.161l.357-.067A7.954,7.954,0,0,1,1494.24,2352.521Z" fill="url(#linear-gradient-3)"/>
        </g>
        <g id="Group_1582" data-name="Group 1582">
          <path id="Path_2390" data-name="Path 2390" d="M1445.351,2348.735c-.374,1.871-3.042,1.559-6.022.83s-2.272.138-6.514-.332-5.527-2.051-5.656-2.681c-.116-.56,1.98-.757,4.228-1.016.283-.032.567-.067.851-.1,2.538-.319,4.4-1.956,6.7-3.3,2.184-1.274,5.443-6.465,5.443-6.465l5.817.461s-3.052,4.636-4.233,6.652a7.04,7.04,0,0,0-.571,3.965A7.453,7.453,0,0,1,1445.351,2348.735Z" fill="#ffae73"/>
        </g>
        <g id="Group_1583" data-name="Group 1583">
          <path id="Path_2391" data-name="Path 2391" d="M1439.329,2349.565c-2.981-.728-2.272.138-6.514-.332s-5.527-2.051-5.656-2.681c-.116-.56,1.98-.757,4.228-1.016l.021.043a11.965,11.965,0,0,0,6.075,1.888c2.878.07,5.926-.755,7.913-.722a7.453,7.453,0,0,1-.045,1.99C1444.977,2350.606,1442.309,2350.294,1439.329,2349.565Z" fill="url(#linear-gradient-3)"/>
        </g>
        <g id="Group_1584" data-name="Group 1584">
          <path id="Path_2392" data-name="Path 2392" d="M1467.644,2311.538l5.439,14.633,7.1,19.106a11.482,11.482,0,0,0,3.772-.344,16.352,16.352,0,0,0,3.648-1.776s-1.972-20.515-5.649-32.291a20.99,20.99,0,0,0-3.164-6.844C1473.088,2297.284,1467.644,2311.538,1467.644,2311.538Z" fill="#f28018"/>
        </g>
        <g id="Group_1585" data-name="Group 1585">
          <path id="Path_2393" data-name="Path 2393" d="M1473.174,2288.3c3.1-1,11.172-.015,19.932,1.57a5.941,5.941,0,0,0,6.136-2.77h0l22.047-1.722s7.276,16.134,3.293,26.414a3.868,3.868,0,0,1-3.854,2.485h0s-13.322.019-17.583.019c-10.964,0-23.205-7.537-24.788-7.854-2.592-.518-3.629,4.665-6.22,10.108s-24.362,24.1-24.362,24.1a19.18,19.18,0,0,1-4.729-.485,4.653,4.653,0,0,1-2.03-1.282S1465.139,2290.89,1473.174,2288.3Z" fill="#ff912b"/>
        </g>
        <g id="Group_1586" data-name="Group 1586">
          <path id="Path_2394" data-name="Path 2394" d="M1499.371,2256.735c7.851,4.323,23.778,13.285,23.861,13.227,0,0,5.854,2.206,9.175,0,5.536-3.676,8.5-13.57-1.619-22.084-5.049-4.246-8.635-5.28-9.18-12.06-.3-3.693-5.365-15.915-13.779-14.682a11.71,11.71,0,0,1-2.033.124,7.824,7.824,0,0,0-4.212,1.095C1496.856,2225.171,1487.6,2255.062,1499.371,2256.735Z" fill="url(#linear-gradient-3)"/>
        </g>
        <g id="Group_1587" data-name="Group 1587">
          <path id="Path_2395" data-name="Path 2395" d="M1505.952,2253.056c-.035.022,3.863,1.353,6.469.2,2.451-1.084,4.309-5.117,4.272-5.12-1.115-.051-2.339-1.026-3.282-7.424l-.475.17-7.985,2.874s.578,2.562.953,5C1506.219,2250.8,1506.388,2252.766,1505.952,2253.056Z" fill="#ffae73"/>
        </g>
        <g id="Group_1588" data-name="Group 1588">
          <path id="Path_2396" data-name="Path 2396" d="M1504.951,2243.755s.318,1.382.783,3.964a9.015,9.015,0,0,0,7.2-6.838Z" fill="#f9924f"/>
        </g>
        <g id="Group_1589" data-name="Group 1589">
          <path id="Path_2397" data-name="Path 2397" d="M1503.762,2246.3s10.924-1.467,9.907-8.256-.294-11.551-7.312-10.9-7.982,3.443-8.193,5.791S1500.894,2246.5,1503.762,2246.3Z" fill="#ffae73"/>
        </g>
        <g id="Group_1590" data-name="Group 1590">
          <path id="Path_2398" data-name="Path 2398" d="M1498.562,2229.21s6.993,6.027,11.75,6.512,6.558-1.041,6.558-1.041a18.573,18.573,0,0,1-4.491-6.084,3.345,3.345,0,0,0-2.758-1.972C1506.225,2226.331,1499.786,2226.2,1498.562,2229.21Z" fill="url(#linear-gradient-3)"/>
        </g>
        <g id="Group_1591" data-name="Group 1591">
          <path id="Path_2399" data-name="Path 2399" d="M1502.933,2228.67a17.223,17.223,0,0,0-3.076,3.94,13.226,13.226,0,0,0-.358,7.03s-3.645-7.088-1.581-10.532C1500.106,2225.457,1502.933,2228.67,1502.933,2228.67Z" fill="#10294c"/>
        </g>
        <g id="Group_1592" data-name="Group 1592">
          <path id="Path_2400" data-name="Path 2400" d="M1496.753,2269.149c.33,22.114.09,17.493,2.509,19.592.583.505,2.222.806,4.378.949,6.782.45,18.7-.668,19.155-1.921,1.564-4.336.46-5.683,1.765-12.321.136-.707.3-1.471.5-2.3,1.088-4.559,2.147-6.111-1.713-13.436-3.5-6.635-7.137-12.02-7.465-11.826-9.235,5.483-9.98.874-9.98.874S1496.591,2258.362,1496.753,2269.149Z" fill="#899bfa"/>
        </g>
        <g id="Group_1593" data-name="Group 1593">
          <path id="Path_2401" data-name="Path 2401" d="M1473.083,2326.171l7.1,19.106a11.482,11.482,0,0,0,3.772-.344,16.352,16.352,0,0,0,3.648-1.776s-1.972-20.515-5.649-32.291Z" fill="#ff912b"/>
        </g>
        <g id="Group_1594" data-name="Group 1594">
          <path id="Path_2402" data-name="Path 2402" d="M1505.9,2248.756s-9.5,1.611-10.62,5.7-4.789,28.927-4.789,28.927,2.68,2.617,4.912.385,7.023-23.237,7.023-23.237Z" fill="#899bfa"/>
        </g>
        <g id="Group_1595" data-name="Group 1595">
          <path id="Path_2403" data-name="Path 2403" d="M1503.64,2289.69c6.782.45,18.7-.668,19.155-1.921,1.564-4.336.46-5.683,1.765-12.321l-3.271-9.21s.541,10.256-2.484,12.953-12.383,5.207-13.853,7.461A8.253,8.253,0,0,0,1503.64,2289.69Z" fill="#6f7deb"/>
        </g>
        <g id="Group_1596" data-name="Group 1596">
          <path id="Path_2404" data-name="Path 2404" d="M1511.41,2285.376s-6.69-1.489-7.77-.9-3.717,2.756-4.048,3.508,2.4-.571,3.293-.809a7.909,7.909,0,0,1,2.842.622,9.436,9.436,0,0,0,5.092.511Z" fill="#ffae73"/>
        </g>
        <g id="Group_1597" data-name="Group 1597">
          <path id="Path_2405" data-name="Path 2405" d="M1515.89,2247.878s8.983.554,12.092,4.891c4.378,6.1,13.061,32.124,8.085,35.594-5.6,3.908-25.508,1.023-25.508,1.023s-.662-3.1.26-4.594,15.9-3.916,16.587-4.607-8.639-13.478-8.639-15.551S1515.89,2247.878,1515.89,2247.878Z" fill="#899bfa"/>
        </g>
        <g id="Group_1598" data-name="Group 1598">
          <path id="Path_2406" data-name="Path 2406" d="M1503.317,2286.342a12.932,12.932,0,0,1-1.862,2.024,1.369,1.369,0,0,1-.756.162l.945-1.7Z" fill="#ffae73"/>
        </g>
        <g id="Group_1599" data-name="Group 1599">
          <path id="Path_2407" data-name="Path 2407" d="M1503.64,2284.48l-4.075,1.979a.725.725,0,0,0,.675.261,9.72,9.72,0,0,0,1.768-.486Z" fill="#ffae73"/>
        </g>
      </g>
      <g id="Group_1604" data-name="Group 1604">
        <g id="Group_1601" data-name="Group 1601">
          <path id="Path_2408" data-name="Path 2408" d="M1468.84,2289.133h42.57v.939h-42.192Z" fill="#10294c"/>
        </g>
        <g id="Group_1602" data-name="Group 1602">
          <path id="Path_2409" data-name="Path 2409" d="M1501.455,2290.072h-32.238l-9.7-24.115h32.188Z" fill="#10294c"/>
        </g>
        <g id="Group_1603" data-name="Group 1603">
          <path id="Path_2410" data-name="Path 2410" d="M1477.356,2278.015a1.116,1.116,0,0,1,1.094-1.535,2.2,2.2,0,0,1,1.975,1.535,1.116,1.116,0,0,1-1.094,1.534A2.2,2.2,0,0,1,1477.356,2278.015Z" fill="#e8f2fa"/>
        </g>
      </g>
    </g>
    <g id="Group_1606" data-name="Group 1606">
      <rect id="Rectangle_171" data-name="Rectangle 171" width="4.383" height="4.383" transform="translate(1483.421 2440.601) rotate(138.972)" fill="#fff"/>
    </g>
    <g id="Group_1629" data-name="Group 1629">
      <g id="Group_1607" data-name="Group 1607">
        <path id="Path_2411" data-name="Path 2411" d="M1522.83,2495.743c.66-2.191.988-2.389.988-2.389s20.5,2.555,23.975,2.331c2.064-.134,26.682-8.343,26.682-8.343l14.945,14.334s-37.068,6.107-42.292,5.706c-8.634-.661-21.812-8.281-21.812-8.281S1522.313,2497.463,1522.83,2495.743Z" fill="#f28018"/>
      </g>
      <g id="Group_1608" data-name="Group 1608">
        <path id="Path_2412" data-name="Path 2412" d="M1578.853,2659.362s-.286,6.946-1.62,8.634l-18.555.108a2.9,2.9,0,0,1,2.774-2.821,12.447,12.447,0,0,0,9.011-7.111C1572.53,2653.664,1578.853,2659.362,1578.853,2659.362Z" fill="url(#linear-gradient-3)"/>
      </g>
      <g id="Group_1609" data-name="Group 1609">
        <path id="Path_2413" data-name="Path 2413" d="M1615.265,2658.36s1.294,9.228-.463,9.389c-.233.022-7.477.138-10.614.191-3.689.061-9.749-.068-9.749-.068a.965.965,0,0,1-.874-1.451,3.888,3.888,0,0,1,2.788-1.789c3.231-.622,8.616-3,10.5-7.313C1608.843,2652.776,1615.265,2658.36,1615.265,2658.36Z" fill="url(#linear-gradient-3)"/>
      </g>
      <g id="Group_1610" data-name="Group 1610">
        <path id="Path_2414" data-name="Path 2414" d="M1569.206,2563.8s5.159,18.053,19.945,49.4,15.426,46.459,15.426,46.459a13.009,13.009,0,0,0,5.208.475,14.006,14.006,0,0,0,5.48-1.777s-.958-37.315-7.942-53.135-8.408-59.113-8.408-59.113Z" fill="url(#linear-gradient-4)"/>
      </g>
      <g id="Group_1611" data-name="Group 1611">
        <path id="Path_2415" data-name="Path 2415" d="M1560.923,2548.267a450.168,450.168,0,0,0,4.426,62.277c4.836,34.323,2.575,50.285,2.575,50.285s1.282.934,5.225.918c4.616-.018,6.981-1.925,6.981-1.925s6.922-34.336,4.938-51.515,9.479-58.951,9.479-58.951Z" fill="#6f7deb"/>
      </g>
      <g id="Group_1612" data-name="Group 1612">
        <path id="Path_2416" data-name="Path 2416" d="M1572.156,2478.585c.049,2.193.341,4.581,1.218,5.751l4.923,2.583,5.459-4.045a24.393,24.393,0,0,1-1.511-10.919c.049-.39.244-2.875.244-2.924l-2.73,1.365-7.408,3.7a1.542,1.542,0,0,1-.049.341C1572.253,2475.173,1572.156,2476.781,1572.156,2478.585Z" fill="#ffae73"/>
      </g>
      <g id="Group_1613" data-name="Group 1613">
        <path id="Path_2417" data-name="Path 2417" d="M1599.429,2551.72c-1.786,8.17-40.02,4.584-39.521-.4.019-.166.118-2.475.256-5.587.29-6.73.732-17.247.789-18.069,0-.015.005-.029.005-.043.688-6.945,1.349-13.738,1.391-18.174a63.016,63.016,0,0,1,1.273-11.353c.651-3.3,1.449-6.289,2.143-8.622a9.536,9.536,0,0,1,5.586-6.123,8.5,8.5,0,0,1,.926-.323c4.5-1.306,9.037-2.968,10.724-2.474,4.569,1.344,9.655,9.438,12.058,19.694C1599.558,2519.437,1600.6,2546.4,1599.429,2551.72Z" fill="#ff912b"/>
      </g>
      <g id="Group_1614" data-name="Group 1614">
        <path id="Path_2418" data-name="Path 2418" d="M1572.156,2478.585c2.778-1.121,8.091-3.656,9.553-6.532.634-1.268-.341-1.657-1.95-1.657l-7.408,3.7a1.542,1.542,0,0,1-.049.341C1572.253,2475.173,1572.156,2476.781,1572.156,2478.585Z" fill="#ffa05e"/>
      </g>
      <g id="Group_1615" data-name="Group 1615">
        <path id="Path_2419" data-name="Path 2419" d="M1568.784,2473.644s13.3,4.151,15.762-4.175,5.829-13.4-2.562-16.4-10.987-.314-12.483,2.265S1565.386,2472.35,1568.784,2473.644Z" fill="#ffae73"/>
      </g>
      <g id="Group_1616" data-name="Group 1616">
        <path id="Path_2420" data-name="Path 2420" d="M1570.024,2454.533s.848,9.689,2.852,9.268,3.821-.732,3.527,2.188-.387,6.431,5.787,6.948,12.368-15.546,10.671-18.561C1587.967,2445.676,1562.95,2443.921,1570.024,2454.533Z" fill="url(#linear-gradient-3)"/>
      </g>
      <g id="Group_1617" data-name="Group 1617">
        <path id="Path_2421" data-name="Path 2421" d="M1560.164,2545.729c.29-6.73.732-17.247.789-18.069,0-.015.005-.029.005-.043l22.587-13.5S1584.419,2545.639,1560.164,2545.729Z" fill="#f28018"/>
      </g>
      <g id="Group_1624" data-name="Group 1624">
        <g id="Group_1621" data-name="Group 1621">
          <g id="Group_1618" data-name="Group 1618">
            <path id="Path_2422" data-name="Path 2422" d="M1482.24,2438.691l-4.07,3.541s6.976,7.47,6.328,15.33l10.416,8.795,8.624-7.509-7.212-11.962S1488.595,2446.606,1482.24,2438.691Z" fill="url(#linear-gradient-3)"/>
          </g>
          <g id="Group_1619" data-name="Group 1619">
            <path id="Path_2423" data-name="Path 2423" d="M1492.826,2451.468a2.317,2.317,0,1,0-.227,3.269A2.318,2.318,0,0,0,1492.826,2451.468Z" fill="#fff"/>
          </g>
          <g id="Group_1620" data-name="Group 1620">
            <rect id="Rectangle_172" data-name="Rectangle 172" width="0.884" height="18.738" transform="matrix(-0.754, 0.657, -0.657, -0.754, 1492.818, 2454.314)" fill="#fff"/>
          </g>
        </g>
        <g id="Group_1622" data-name="Group 1622">
          <rect id="Rectangle_173" data-name="Rectangle 173" width="11.439" height="2.874" transform="matrix(-0.754, 0.656, -0.656, -0.754, 1505.425, 2461.017)" fill="#6d76ff"/>
        </g>
        <g id="Group_1623" data-name="Group 1623">
          <path id="Path_2424" data-name="Path 2424" d="M1591.177,2568.7l.418-.364a5.441,5.441,0,0,0,.533-7.677l-86.7-99.646-8.629,7.508,86.7,99.646A5.442,5.442,0,0,0,1591.177,2568.7Z" fill="url(#linear-gradient-3)"/>
        </g>
      </g>
      <g id="Group_1625" data-name="Group 1625">
        <path id="Path_2425" data-name="Path 2425" d="M1542.389,2517.182a9.564,9.564,0,0,1-2.057-2.5,3.46,3.46,0,0,0-3.207-1.819c-1.77.13-4.918-3.641-4.918-3.641-.457,1-2.038,4.738.223,6.633,1.844,1.545,6.283,4.221,8.975,5.983C1544.3,2523.73,1542.389,2517.182,1542.389,2517.182Z" fill="#ffae73"/>
      </g>
      <g id="Group_1626" data-name="Group 1626">
        <path id="Path_2426" data-name="Path 2426" d="M1542.168,2516.63s22.4,3.808,24.389,2.842c3.169-1.543-1.229-24.274-1.229-24.274s-.189-5.152,5.828-6.367c5.229-1.056,10.275,2.861,10.275,2.861s4.588,4.106,4,8.66c-1.3,10.094-3.321,30.625-10.073,33.772-8.708,4.059-33.907-11.256-33.907-11.256a4.405,4.405,0,0,1-.719-2.936A6.838,6.838,0,0,1,1542.168,2516.63Z" fill="#ff912b"/>
      </g>
      <g id="Group_1627" data-name="Group 1627">
        <path id="Path_2427" data-name="Path 2427" d="M1521.9,2497.372s-5.655-2.061-5.156-4.953,2.26-2.527,3.324-1.529S1520.536,2497.006,1521.9,2497.372Z" fill="#ffae73"/>
      </g>
      <g id="Group_1628" data-name="Group 1628">
        <path id="Path_2428" data-name="Path 2428" d="M1540.722,2515.7a13.186,13.186,0,0,0-1.594-3.238c-.823-.972-1.172-2.618-1.546-2.07s.3,2.519,0,3.266S1540.722,2515.7,1540.722,2515.7Z" fill="#ffae73"/>
      </g>
    </g>
    <g id="Group_1630" data-name="Group 1630">
      <rect id="Rectangle_174" data-name="Rectangle 174" width="101.305" height="35.185" transform="translate(1141.01 2667.836) rotate(-180)" fill="#a9c2ff"/>
    </g>
    <g id="Group_1631" data-name="Group 1631">
      <rect id="Rectangle_175" data-name="Rectangle 175" width="861.857" height="2.484" rx="1.242" transform="translate(1834.961 2670.086) rotate(180)" fill="#1e3865"/>
    </g>
  </g>
</svg>
