<svg xmlns="http://www.w3.org/2000/svg" width="93.215" height="93.306" viewBox="0 0 93.215 93.306">
  <g id="Group_1636" data-name="Group 1636" transform="translate(-321.263 -3107.142)">
    <path id="Path_2434" data-name="Path 2434" d="M414.2,3159.967a6.642,6.642,0,0,0-6.566-6.082c-.707-.044-1.42-.006-2.206-.006v-1.135q0-6.76,0-13.522c-.009-4.917-2.99-7.9-7.9-7.9q-8.029-.008-16.058,0h-1.105a18.005,18.005,0,0,0,.055-11.808,17.084,17.084,0,0,0-7.25-9.288c-6.552-4.048-13.319-4.194-19.7.1-7.5,5.04-9.51,12.309-7.258,21h-.993q-8.076,0-16.152,0c-4.781.007-7.795,3.016-7.8,7.819q-.014,26.763,0,53.526c0,4.753,3.008,7.776,7.74,7.778q34.323.015,68.645-.008a10.23,10.23,0,0,0,2.505-.291c3.181-.812,5.246-3.709,5.262-7.354.02-4.6.005-9.2.005-13.8V3177.9c.533,0,.965,0,1.4,0,4.169-.044,7.058-2.271,7.426-6.419A66.216,66.216,0,0,0,414.2,3159.967Zm-50.849-49.688a15.027,15.027,0,1,1-15.031,14.95A15,15,0,0,1,363.351,3110.279ZM324.276,3143.9a54.894,54.894,0,0,1,.22-6.174,3.737,3.737,0,0,1,4.068-3.386q9.3-.051,18.6.01a1.482,1.482,0,0,1,.972.647c3.757,5.5,8.942,8.425,15.612,8.3a17.375,17.375,0,0,0,14.7-8.2,1.554,1.554,0,0,1,1.5-.789c5.823.025,11.646.011,17.469.015,3.379,0,4.994,1.625,5,5.015q.006,3.286,0,6.574c0,.094-.015.187-.033.39H324.273C324.273,3145.5,324.257,3144.7,324.276,3143.9Zm77.915,50.08c-.2,2.282-1.793,3.367-4.1,3.448-.375.014-.751.011-1.127.011H329.744c-.282,0-.563,0-.845,0-2.7-.045-4.339-1.31-4.539-3.987-.206-2.761-.046-5.55-.046-8.384h77.94C402.254,3188.072,402.451,3191.047,402.191,3193.982Zm.173-12.037H324.3V3149.42h78.068v4.44H401.4c-5.134,0-10.27-.066-15.4.022-3.669.063-7.022,1.2-9.436,4.094-3.165,3.794-3.413,8.2-1.852,12.67,1.5,4.3,5,6.3,9.309,7.059a15.436,15.436,0,0,0,2.615.191c4.884.018,9.768.009,14.652.009h1.075Zm9.069-11.931c-.013,3.222-1.65,4.877-4.849,4.882-6.793.01-13.587.072-20.378-.048a12.958,12.958,0,0,1-4.785-1.114c-3.432-1.49-5.056-5.071-4.472-9.26.651-4.665,4.014-7.539,8.977-7.6,3.505-.042,7.012-.008,10.518-.008,3.381,0,6.761-.008,10.142,0,3.193.008,4.835,1.662,4.847,4.883Q411.448,3165.882,411.433,3170.014Z" fill="#fff"/>
    <path id="Path_2435" data-name="Path 2435" d="M362.179,3126.809c.876,0,1.754-.026,2.628.012,1.054.045,1.545.547,1.545,1.489s-.5,1.45-1.544,1.494c-.874.037-1.751.013-2.627.01-1.308,0-1.643-.277-1.834-1.6a1.466,1.466,0,0,0-1.2-1.376c-1.079-.234-1.887.585-1.8,1.793.177,2.372,1.585,3.733,4.419,4.273.29,2.46.567,3.006,1.623,2.9,1.911-.194,1.327-1.769,1.495-2.944.171-.025.32-.042.466-.07,2.767-.531,4.228-2.36,3.991-4.992-.219-2.421-2.1-3.979-4.822-4-.876,0-1.753.026-2.627-.011-1.042-.045-1.549-.561-1.549-1.493s.506-1.447,1.548-1.491c.843-.036,1.689-.016,2.533-.01,1.408.01,1.7.271,1.942,1.684a1.466,1.466,0,0,0,1.56,1.313,1.414,1.414,0,0,0,1.417-1.451,4.01,4.01,0,0,0-2.058-3.842,16.1,16.1,0,0,0-2.4-.882,10.19,10.19,0,0,0-.124-1.758,1.291,1.291,0,0,0-1.457-1.066c-1.9.211-1.346,1.762-1.5,2.952-.171.027-.318.046-.464.073-2.769.528-4.251,2.379-3.991,4.987C357.6,3125.25,359.464,3126.8,362.179,3126.809Z" fill="#fff"/>
    <path id="Path_2436" data-name="Path 2436" d="M385.937,3159.875a6.009,6.009,0,1,0,5.958,6.1A6.045,6.045,0,0,0,385.937,3159.875Zm-.1,9.011a3,3,0,1,1,3.046-2.908A2.994,2.994,0,0,1,385.842,3168.886Z" fill="#fff"/>
  </g>
</svg>
