<svg xmlns="http://www.w3.org/2000/svg" width="109.046" height="99.906" viewBox="0 0 109.046 99.906">
  <g id="Group_1637" data-name="Group 1637" transform="translate(-905.477 -3103.842)">
    <path id="Path_2437" data-name="Path 2437" d="M926.889,3163.785c1.059-1.236,2.021-2.5,3.127-3.628,6.707-6.82,14.635-9.212,24.033-6.856a46.176,46.176,0,0,0,9.412,1.2c5.026.193,10.066.123,15.1.027,3.5-.066,6.509.77,8.639,3.828.356-.339.661-.616.953-.906q5.492-5.427,10.98-10.856a9.4,9.4,0,0,1,9.419-2.487,8.1,8.1,0,0,1,4.134,12.948c-5.9,7.146-11.941,14.184-18.008,21.192a12.814,12.814,0,0,1-9.681,4.576c-9.57.175-19.143.141-28.713.284-3.128.047-6.252.381-9.508.593.084.5.124.818.191,1.129a7.186,7.186,0,0,1-1.649,6.775c-3.631,3.857-7.349,7.632-11.065,11.408a2.052,2.052,0,0,1-3.129.032q-1.925-1.764-3.779-3.6a2.126,2.126,0,1,1,2.912-3.1c.791.694,1.534,1.444,2.174,2.052,1.569-1.475,3.106-2.868,4.581-4.322,1.59-1.567,3.129-3.186,4.678-4.794,1.66-1.724,1.67-3.631-.028-5.286q-8.251-8.045-16.541-16.049c-1.472-1.422-3.366-1.627-4.681-.321-3.3,3.274-6.5,6.651-9.663,9.912,1.9,1.974,3.721,3.88,5.554,5.778.526.544,1.1,1.044,1.607,1.6a2.16,2.16,0,0,1,0,3.06,2.117,2.117,0,0,1-2.972-.029c-1.809-1.722-3.568-3.5-5.346-5.25-1.051-1.037-2.105-2.07-3.147-3.115-1.295-1.3-1.324-2.321-.074-3.624q5.226-5.45,10.473-10.877a7.615,7.615,0,0,1,9.626-1.481C926.623,3163.665,926.756,3163.723,926.889,3163.785Zm3.329,2.976c4.454,4.295,8.857,8.554,13.292,12.78a1.6,1.6,0,0,0,1.127.232c2.52-.245,5.033-.717,7.556-.774,6.958-.155,13.919-.143,20.88-.2,3.405-.026,6.809-.038,10.214-.074a11.749,11.749,0,0,0,9.486-4.711c3.558-4.418,7.32-8.672,10.995-13,1.812-2.133,3.662-4.237,5.429-6.407,2-2.457.836-6.033-2.108-6.48a5.5,5.5,0,0,0-5.005,1.519c-4.281,4.28-8.606,8.516-12.889,12.794a2.4,2.4,0,0,0-.637,1.248c-.772,4.993-4.01,7.808-9.088,7.822-4.5.012-9,0-13.508,0a7.045,7.045,0,0,1-1.019-.041,2.042,2.042,0,0,1-1.756-1.931,2,2,0,0,1,1.577-2.179,6.412,6.412,0,0,1,1.352-.1q6.641-.011,13.28,0a4.892,4.892,0,0,0,3.3-.942,4.287,4.287,0,0,0,1.373-4.7,4.24,4.24,0,0,0-4.238-2.812c-5.221-.018-10.443-.05-15.664.007a43.452,43.452,0,0,1-11.889-1.475C942.6,3154.729,934.714,3159.912,930.218,3166.761Z" fill="#fff"/>
    <path id="Path_2438" data-name="Path 2438" d="M990.553,3126.479a22.588,22.588,0,1,1-22.546-22.637A22.562,22.562,0,0,1,990.553,3126.479Zm-22.589,18.278a18.315,18.315,0,1,0-18.324-18.24A18.349,18.349,0,0,0,967.964,3144.757Z" fill="#fff"/>
    <path id="Path_2439" data-name="Path 2439" d="M922.433,3182.84a5.778,5.778,0,1,1,5.82-5.728A5.792,5.792,0,0,1,922.433,3182.84Zm1.52-5.612a1.5,1.5,0,0,0-1.353-1.65,1.472,1.472,0,0,0-1.607,1.392,1.386,1.386,0,0,0,1.293,1.567A1.446,1.446,0,0,0,923.953,3177.228Z" fill="#fff"/>
    <path id="Path_2440" data-name="Path 2440" d="M922.632,3190.12a2.184,2.184,0,0,1,2.191,2.132,2.214,2.214,0,0,1-2.187,2.152,2.112,2.112,0,0,1-2.165-2.126A2.166,2.166,0,0,1,922.632,3190.12Z" fill="#fff"/>
    <path id="Path_2441" data-name="Path 2441" d="M958.827,3169.616a2.149,2.149,0,0,1-2.141,2.169,2.115,2.115,0,0,1-2.229-2.059,2.148,2.148,0,0,1,2.142-2.167A2.1,2.1,0,0,1,958.827,3169.616Z" fill="#fff"/>
    <path id="Path_2442" data-name="Path 2442" d="M974.459,3120.046c.022,1.807-.751,2.777-2.008,2.841a2.1,2.1,0,0,1-2.219-2.074c-.118-1.413-.628-2.07-1.817-2.341a3.225,3.225,0,0,0-3.18,1.509,2.228,2.228,0,0,0,1.239,3.477,7.662,7.662,0,0,0,1.762.381,8.187,8.187,0,0,1,7.064,6.137,6.946,6.946,0,0,1-4.517,8.057,2.31,2.31,0,0,0-1.339,1.166,2.994,2.994,0,0,1-1.842,1.209c-.871.2-1.528-.4-1.985-1.2a2.566,2.566,0,0,0-1.027-1.023,7.99,7.99,0,0,1-4.4-7.369,2.109,2.109,0,0,1,4.209-.176c.038.262.054.527.1.788.221,1.293.715,2.475,2.055,2.885a4.053,4.053,0,0,0,3.721-.87,2.637,2.637,0,0,0,.351-3.675,4.47,4.47,0,0,0-2.974-1.682,11.793,11.793,0,0,1-2.946-.748c-2.494-1.057-4.077-2.889-4.109-5.708a6.8,6.8,0,0,1,3.888-6.537,1.667,1.667,0,0,0,1.112-1.243,1.826,1.826,0,0,1,1.82-1.441,2.177,2.177,0,0,1,2.123,1.222,3.03,3.03,0,0,0,1.114,1.079C972.957,3115.911,974.555,3117.556,974.459,3120.046Z" fill="#fff"/>
  </g>
</svg>
