<svg xmlns="http://www.w3.org/2000/svg" width="89.079" height="88.918" viewBox="0 0 89.079 88.918">
  <g id="Group_1638" data-name="Group 1638" transform="translate(-1507.59 -3109.336)">
    <path id="Path_2443" data-name="Path 2443" d="M1592.983,3155.334c-4.952-9.059-12.814-14.074-23.136-15.08-1.31-.128-2.644-.018-3.973-.018-.073-1.59-.093-3-.208-4.406a29.026,29.026,0,0,0-22.1-25.588c-1.99-.462-4.051-.612-6.08-.906h-1.564a52.466,52.466,0,0,0-5.729.852c-11.653,3.019-18.957,10.42-21.909,22.088-.331,1.308-.466,2.665-.691,4v4.345c.238,1.423.411,2.861.726,4.267a29.081,29.081,0,0,0,25.978,22.525c1.342.106,2.69.125,3.865.177.262,2.52.31,5,.8,7.391a29.091,29.091,0,0,0,44.469,18.486,44.117,44.117,0,0,0,4.574-3.715,1.19,1.19,0,0,0,0-1.841,1.227,1.227,0,0,0-1.783-.013c-.178.148-.337.318-.508.474-6.884,6.283-14.932,8.549-24.02,6.614a26.444,26.444,0,1,1,31.464-19.478,71.047,71.047,0,0,1-2.582,6.69,1.962,1.962,0,0,0,.066,1.5,1.414,1.414,0,0,0,1.253.479,2.043,2.043,0,0,0,1.069-1.008C1597.805,3173.9,1598,3164.5,1592.983,3155.334Zm-29.894-14.944-4.036.909a54.629,54.629,0,0,0-.029-5.773,22.493,22.493,0,0,0-32.228-17.279c-1.205.581-1.518,1.128-1.144,1.946.4.874,1.064.992,2.276.4a19.947,19.947,0,0,1,27.508,11.041,20.286,20.286,0,0,1,.978,10,1.187,1.187,0,0,1-.782,1.017,28.763,28.763,0,0,0-14.722,14.682,1.266,1.266,0,0,1-1.082.819,19.9,19.9,0,0,1-17.979-32.947,7.11,7.11,0,0,0,.7-.882,1.157,1.157,0,0,0-.16-1.579,1.233,1.233,0,0,0-1.668-.1,2.812,2.812,0,0,0-.5.479,23.109,23.109,0,0,0-6.055,16.438,22.61,22.61,0,0,0,17.433,20.84,26.761,26.761,0,0,0,3.948.541c1.291.09,2.593.019,3.947.019-.28,1.246-.564,2.512-.848,3.778-6.705.949-17.679-1.969-24.093-11.758a26.466,26.466,0,1,1,48.533-12.592Z" fill="#fff"/>
    <path id="Path_2444" data-name="Path 2444" d="M1567.425,3146.674a22.521,22.521,0,1,0,22.581,22.473A22.511,22.511,0,0,0,1567.425,3146.674Zm-.065,42.433a19.913,19.913,0,1,1,20.038-19.84A19.943,19.943,0,0,1,1567.36,3189.107Z" fill="#fff"/>
    <path id="Path_2445" data-name="Path 2445" d="M1569.4,3125.467a1.266,1.266,0,0,0,1.923.164,1.318,1.318,0,0,0-.028-1.932c-.441-.527-.909-1.032-1.443-1.634a3.471,3.471,0,0,1,.449,0,18.467,18.467,0,0,1,15.362,17.728,2.024,2.024,0,0,0,.533,1.363,1.731,1.731,0,0,0,1.355.135c.617-.162.722-.748.7-1.34a21.087,21.087,0,0,0-18.15-20.565c.854-.506,1.51-.87,2.139-1.274a1.294,1.294,0,1,0-1.273-2.254c-1.759,1-3.511,2.019-5.239,3.074a1.259,1.259,0,0,0-.33,2.07C1566.708,3122.516,1568.047,3124,1569.4,3125.467Z" fill="#fff"/>
    <path id="Path_2446" data-name="Path 2446" d="M1534.876,3182.314a1.316,1.316,0,1,0-1.952,1.7c.281.367.618.69.92,1.041.131.152.238.325.429.588a17.632,17.632,0,0,1-7.742-3.023,18.163,18.163,0,0,1-8.031-14.749,2.071,2.071,0,0,0-.525-1.368,1.726,1.726,0,0,0-1.353-.145c-.615.158-.735.738-.714,1.334.293,8.178,4.055,14.251,11.138,18.281a20.444,20.444,0,0,0,7.018,2.293c-.872.519-1.552.9-2.2,1.318a1.172,1.172,0,0,0-.448,1.715,1.221,1.221,0,0,0,1.707.534c1.789-1.008,3.566-2.039,5.316-3.113a1.26,1.26,0,0,0,.323-2.073C1537.494,3185.178,1536.19,3183.741,1534.876,3182.314Z" fill="#fff"/>
    <path id="Path_2447" data-name="Path 2447" d="M1529.509,3139.515c.752.018,1.506.025,2.258,0,.479-.017.654.163.7.643a5.764,5.764,0,0,1-.929,3.8c-.645.959-1.439,1.82-2.047,2.8a1.976,1.976,0,0,0-.3,1.563,2,2,0,0,0,1.407.761,23.519,23.519,0,0,0,2.862.052c3.04.021,6.08.047,9.12.06,1.081,0,1.657-.589,1.492-1.519-.163-.911-.834-1.082-1.621-1.086q-4.212-.024-8.425-.06c-.3,0-.6-.029-.936-.046,1.838-3.386,1.838-3.386,2-6.964,1,0,1.947.02,2.9-.006.911-.025,1.409-.512,1.407-1.307s-.489-1.261-1.418-1.284c-1.012-.024-2.027.019-3.039-.027a1.009,1.009,0,0,1-.762-.382,20.607,20.607,0,0,1-1.482-3.577,2.764,2.764,0,0,1,1.921-3.434,5,5,0,0,1,6.676,2.625,1.244,1.244,0,0,0,1.606.786,1.226,1.226,0,0,0,.822-1.658,5.718,5.718,0,0,0-.77-1.543,7.359,7.359,0,0,0-7.608-3.079c-4.345.712-6.272,3.99-4.89,8.166.223.675.518,1.325.767,1.956-.058.072-.075.111-.094.112-.548.019-1.1.028-1.645.05-.946.039-1.411.459-1.422,1.27C1528.037,3139.032,1528.528,3139.491,1529.509,3139.515Z" fill="#fff"/>
    <path id="Path_2448" data-name="Path 2448" d="M1572.953,3159.669a7.989,7.989,0,0,0-4.508-1.844c-3.819-.261-6.529,1.568-8.516,4.656a12.637,12.637,0,0,0-1.85,5.516c-1.168.295-1.66.726-1.6,1.45.078.919.71,1.255,1.56,1.3.043.2.091.363.113.532a12.488,12.488,0,0,0,2.345,5.9c2.79,3.795,7.545,4.956,11.289,2.763a1.374,1.374,0,0,0,.724-1.876c-.355-.679-1.1-.817-1.962-.427a8.04,8.04,0,0,1-1.86.681c-3.9.682-8.094-3.349-7.874-7.623h.934c1.447,0,2.895.015,4.343-.01a1.23,1.23,0,0,0,1.313-1.214,1.282,1.282,0,0,0-1.263-1.372c-.316-.03-.636-.011-.955-.011h-4.407a8.944,8.944,0,0,1,1.26-4.109c2.291-3.891,6.454-4.619,9.354-2.261a1.255,1.255,0,0,0,1.852-.21A1.3,1.3,0,0,0,1572.953,3159.669Z" fill="#fff"/>
  </g>
</svg>
