<svg xmlns="http://www.w3.org/2000/svg" xmlns:xlink="http://www.w3.org/1999/xlink" width="54.068" height="54.001" viewBox="0 0 54.068 54.001">
  <defs>
    <linearGradient id="linear-gradient" x1="0.5" y1="1" x2="0.5" gradientUnits="objectBoundingBox">
      <stop offset="0" stop-color="#542e8a"/>
      <stop offset="0.116" stop-color="#54378f"/>
      <stop offset="0.307" stop-color="#544f9c"/>
      <stop offset="0.548" stop-color="#5577b2"/>
      <stop offset="0.827" stop-color="#56aed1"/>
      <stop offset="0.941" stop-color="#57c7df"/>
      <stop offset="1" stop-color="#57c7df"/>
    </linearGradient>
  </defs>
  <g id="Group_3628" data-name="Group 3628" transform="translate(-197.016 -2067.06)">
    <path id="Path_6631" data-name="Path 6631" d="M197.016,2110.716v-25.124a2.263,2.263,0,0,1,2.406-1.327,2.107,2.107,0,0,0,1.078-.355c.407-.233.719-.669,1.143-.831,1.332-.507,2.7-.926,4.08-1.39,0-3.359,0-6.664,0-9.968,0-1.589.283-1.82,1.813-1.417,1.13.3,2.246.65,3.464,1.006,0-1.045-.008-1.956,0-2.866.014-1.33.318-1.577,1.578-1.26,6.226,1.57,9.768,5.77,11.443,11.759.342,1.225.534,2.493.795,3.738.093-.017.133-.013.159-.031.175-.116.349-.234.518-.358a30.09,30.09,0,0,1,17.611-5.866c1.019-.022,1.4.361,1.372,1.353-.041,1.23.032,2.464-.026,3.693a1.027,1.027,0,0,0,.851,1.19,5.167,5.167,0,0,1,2.1,1.076,1.474,1.474,0,0,0,1.2.554c1.891.011,2.452.575,2.452,2.45,0,10.589-.013,21.179.022,31.769a2.648,2.648,0,0,1-1.287,2.55H225.729c-1.3-1.334-2.085-1.334-3.378,0H197.016v-6.334c1.14-.588,1.557-.363,1.581.877.017.914.055,1.833-.011,2.743-.063.871.235,1.139,1.119,1.135,7.035-.033,14.07-.011,21.1-.036a2.912,2.912,0,0,0,1.354-.408,3.577,3.577,0,0,1,3.7-.037,3.521,3.521,0,0,0,1.552.444c6.894.028,13.789.019,20.683.018,1.373,0,1.375,0,1.375-1.372q0-15.406,0-30.813c0-1.6-.174-1.726-1.844-1.259v1.24q0,14.352,0,28.7c0,1.751-.039,1.791-1.76,1.791H202.187c-1.678,0-1.742-.062-1.742-1.7v-30.114c-1.842-.229-1.844-.229-1.844,1.359q0,11.238,0,22.477C198.6,2111.12,198.163,2111.365,197.016,2110.716Zm45.837-32.576a1.329,1.329,0,0,0-.312-.107,27.67,27.67,0,0,0-17.139,6.416,1.96,1.96,0,0,0-.529,1.355q-.045,13.982-.02,27.962c0,.29.047.579.082.988a30.626,30.626,0,0,1,17.918-6.317v-1.191q0-7.914,0-15.827c0-.6.08-1.269.833-1.146.313.051.746.721.749,1.112.048,5.8.027,11.607.041,17.41,0,.889-.37,1.265-1.262,1.283a34.445,34.445,0,0,0-3.469.229,23.3,23.3,0,0,0-7.173,1.959,30.391,30.391,0,0,1,13.447,1.129V2085.7c0-1.282-.123-1.4-1.554-1.463a7.261,7.261,0,0,1-.033,1.671c-.086.359-.484.643-.742.961a4.447,4.447,0,0,1-.806-1.009,3.25,3.25,0,0,1-.031-1.149Zm-30.184,21.087a15.163,15.163,0,0,1,10.412,8.955,2.305,2.305,0,0,0,.141-.45c-.008-8.154.088-16.31-.08-24.46a16.372,16.372,0,0,0-3.711-10.115,12.544,12.544,0,0,0-6.762-4.3Zm-10.609,14.184c6.642-2.006,13.074-2.057,19.509.792a3.854,3.854,0,0,0-.221-.482,24.56,24.56,0,0,0-13.954-9.777c-1.664-.434-1.671-.413-1.671-2.087v-18.474c-1.027.329-1.878.655-2.756.866-.772.186-.924.615-.922,1.351q.036,13.348.015,26.7Zm5.351-41.454a1.843,1.843,0,0,0-.06.285q-.009,14.666-.024,29.33c0,.577.22.776.744.918a26.066,26.066,0,0,1,14.086,9.648c.157.205.338.391.583.671a13.929,13.929,0,0,0-10.279-11.968c-1.183-.29-1.488-.815-1.481-1.953.041-7.561.021-15.122.021-22.683,0-3.445,0-3.445-3.34-4.246A1.263,1.263,0,0,0,207.411,2071.957Zm14.03,44.2.029-.166c-.183-.1-.361-.211-.549-.3-5.99-2.776-12.107-2.685-18.282-.744-.315.1-.483.664-.852,1.208Zm24.871-.013c-.364-.54-.525-1.089-.829-1.185-6.208-1.951-12.356-2.055-18.372.763a4.263,4.263,0,0,0-.583.422Z" fill="url(#linear-gradient)"/>
  </g>
</svg>
