<svg xmlns="http://www.w3.org/2000/svg" xmlns:xlink="http://www.w3.org/1999/xlink" width="65.869" height="56.369" viewBox="0 0 65.869 56.369">
  <defs>
    <linearGradient id="linear-gradient" x1="0.5" y1="1" x2="0.5" gradientUnits="objectBoundingBox">
      <stop offset="0" stop-color="#542e8a"/>
      <stop offset="0.116" stop-color="#54378f"/>
      <stop offset="0.307" stop-color="#544f9c"/>
      <stop offset="0.548" stop-color="#5577b2"/>
      <stop offset="0.827" stop-color="#56aed1"/>
      <stop offset="0.941" stop-color="#57c7df"/>
      <stop offset="1" stop-color="#57c7df"/>
    </linearGradient>
    <linearGradient id="linear-gradient-5" x1="0.5" y1="1" x2="0.5" y2="0" xlink:href="#linear-gradient"/>
  </defs>
  <g id="Group_3634" data-name="Group 3634" transform="translate(-191.116 -2775.326)">
    <path id="Path_6661" data-name="Path 6661" d="M212.708,2806.67a1.864,1.864,0,0,1-2.169,1.834,2.5,2.5,0,0,0-3.25,1.465,1.718,1.718,0,0,1-2.415.8,1.891,1.891,0,0,1-1.026-2.46,5.941,5.941,0,0,1,7.436-3.556A1.958,1.958,0,0,1,212.708,2806.67Z" fill="url(#linear-gradient)"/>
    <g id="Group_3633" data-name="Group 3633">
      <path id="Path_6662" data-name="Path 6662" d="M191.116,2799.9c7.076-8.617,16.826-12.556,27.237-15.595,0-.979.055-2.048-.014-3.109a2.5,2.5,0,0,1,1.616-2.63,30.033,30.033,0,0,1,9.6-2.688,55.414,55.414,0,0,1,21.789,1.166,33.557,33.557,0,0,1,4.176,1.625,2.3,2.3,0,0,1,1.457,2.34c-.026,6.341.067,12.683-.04,19.022a23.02,23.02,0,0,1-18.679,21.863c-1.2.206-2.51-.28-3.929-.465-.093.16-.267.491-.472.8-1.012,1.531-1.994,3.085-3.058,4.58-2.717,3.822-6.552,5.108-11.083,4.856-9.584-.534-16.5-5.088-20.682-13.721-2.46-5.082-4.805-10.219-7.213-15.327a13.65,13.65,0,0,0-.7-1.175Zm29.027,27.842a8.061,8.061,0,0,0,7.549-3.251c5.221-6.5,6.228-13.539,2.815-21.138-2.156-4.8-4.5-9.518-6.656-14.317a1.731,1.731,0,0,0-2.15-1.164,42.833,42.833,0,0,0-12.149,3.57,44.31,44.31,0,0,0-13.449,8.608,1.321,1.321,0,0,0-.386,1.771c2.368,4.939,4.585,9.951,7.015,14.858C206.29,2823.859,212.218,2827.444,220.143,2827.741Zm14.344-25.133c.617-.11,1.117-.225,1.624-.287a10.849,10.849,0,0,1,9.1,2.909,1.942,1.942,0,1,1-2.531,2.925c-.336-.264-.651-.561-1.009-.792a6.806,6.806,0,0,0-5.927-.949,23.9,23.9,0,0,1-.174,11.37,13.951,13.951,0,0,0,3.31-.035,19.13,19.13,0,0,0,14.187-18.477c.071-5.484,0-10.971.036-16.456.006-.835-.26-1.292-1.051-1.455a89.78,89.78,0,0,0-9.409-1.87,45.853,45.853,0,0,0-18.689,1.62c-1.9.615-1.887.648-1.6,2.83a10.771,10.771,0,0,0,1.1-.006,2.832,2.832,0,0,1,3.248,2.083,36.572,36.572,0,0,0,1.685,3.6,2.667,2.667,0,0,0,3.957,1.175c1.272-.856,2.328-.778,3.022.224a2.017,2.017,0,0,1-.824,2.956,28.46,28.46,0,0,1-3.352,1.541,2.453,2.453,0,0,0,.126.383C232.36,2798.1,233.4,2800.3,234.487,2802.608Z" fill="url(#linear-gradient)"/>
      <path id="Path_6663" data-name="Path 6663" d="M215.95,2819.861c-1.128-.224-2.274-.379-3.377-.69a1.908,1.908,0,0,1-1.534-2.407,1.963,1.963,0,0,1,2.655-1.285c3.515.893,6.581-.177,8.326-2.928a15.306,15.306,0,0,0,.7-1.367,1.962,1.962,0,0,1,2.62-1.167,2,2,0,0,1,.943,2.722A11.39,11.39,0,0,1,215.95,2819.861Z" fill="url(#linear-gradient)"/>
      <path id="Path_6664" data-name="Path 6664" d="M223.279,2802.484c-1.488-.537-2.457.1-3.2,1.553a1.715,1.715,0,0,1-2.464.654,1.826,1.826,0,0,1-.961-2.283,5.942,5.942,0,0,1,7.706-3.595,1.806,1.806,0,0,1,1.138,2.191A1.888,1.888,0,0,1,223.279,2802.484Z" fill="url(#linear-gradient)"/>
      <path id="Path_6665" data-name="Path 6665" d="M244.456,2795.288a24.649,24.649,0,0,1-3.216-1.59,1.883,1.883,0,0,1-.4-2.81,1.839,1.839,0,0,1,2.729-.226,2.323,2.323,0,0,0,3.228-.035,1.8,1.8,0,0,1,2.706.316,1.855,1.855,0,0,1-.263,2.644C248.125,2794.686,246.74,2795.166,244.456,2795.288Z" fill="url(#linear-gradient-5)"/>
    </g>
  </g>
</svg>
