<svg xmlns="http://www.w3.org/2000/svg" xmlns:xlink="http://www.w3.org/1999/xlink" width="51.806" height="51.806" viewBox="0 0 51.806 51.806">
  <defs>
    <linearGradient id="linear-gradient" x1="0.5" y1="1" x2="0.5" gradientUnits="objectBoundingBox">
      <stop offset="0" stop-color="#542e8a"/>
      <stop offset="0.116" stop-color="#54378f"/>
      <stop offset="0.307" stop-color="#544f9c"/>
      <stop offset="0.548" stop-color="#5577b2"/>
      <stop offset="0.827" stop-color="#56aed1"/>
      <stop offset="0.941" stop-color="#57c7df"/>
      <stop offset="1" stop-color="#57c7df"/>
    </linearGradient>
  </defs>
  <g id="Group_3627" data-name="Group 3627" transform="translate(-198.147 -1949.916)">
    <path id="Path_6623" data-name="Path 6623" d="M234.269,2001.722c-1.022-.2-2.066-.314-3.062-.6a14.646,14.646,0,1,1,18.546-16.37c.072.429.134.859.2,1.289v2.024a2.88,2.88,0,0,0-.075.338,13.991,13.991,0,0,1-1.577,5.384,14.382,14.382,0,0,1-8.952,7.333c-.993.289-2.036.408-3.056.605Zm.978-1.726a12.95,12.95,0,1,0-12.919-13A13,13,0,0,0,235.247,2000Z" fill="url(#linear-gradient)"/>
    <path id="Path_6624" data-name="Path 6624" d="M198.147,1964.569a14.674,14.674,0,1,1,14.652,14.694A14.711,14.711,0,0,1,198.147,1964.569Zm1.724,0a12.95,12.95,0,1,0,12.951-12.928A13,13,0,0,0,199.871,1964.568Z" fill="url(#linear-gradient)"/>
    <path id="Path_6625" data-name="Path 6625" d="M232.362,1955.276l1.1,1.149-2.072,1.949.061.144c.17.007.34.02.51.022,1.331.019,2.664-.01,3.992.062a9.349,9.349,0,0,1,8.7,8.259c.172,1.8.028,3.627.028,5.476h-1.611c-.008-.164-.025-.34-.025-.517,0-1.162,0-2.325,0-3.488a7.776,7.776,0,0,0-7.824-8.054c-1.255-.039-2.513-.006-3.864-.006l2.15,2.088-1.248,1.187-4.1-4.1Z" fill="url(#linear-gradient)"/>
    <path id="Path_6626" data-name="Path 6626" d="M203.353,1979.293h1.669c.008.182.023.36.023.538,0,1.163,0,2.325,0,3.488a7.788,7.788,0,0,0,7.888,8.043c.94.021,1.88,0,2.8,0l-2.039-2.025,1.268-1.2,4.113,4.13-4.157,4.161-1.157-1.255,2.077-1.925-.065-.151c-.208,0-.416.009-.623,0a27.181,27.181,0,0,1-4.372-.274,9.242,9.242,0,0,1-7.412-8.662C203.258,1982.552,203.353,1980.933,203.353,1979.293Z" fill="url(#linear-gradient)"/>
    <path id="Path_6627" data-name="Path 6627" d="M246.5,1987.043a11.226,11.226,0,1,1-11.245-11.223A11.272,11.272,0,0,1,246.5,1987.043Zm-1.725-.053a9.5,9.5,0,1,0-9.441,9.556A9.53,9.53,0,0,0,244.778,1986.99Z" fill="url(#linear-gradient)"/>
    <path id="Path_6628" data-name="Path 6628" d="M212.821,1953.364a11.226,11.226,0,1,1-11.226,11.244A11.261,11.261,0,0,1,212.821,1953.364Zm-9.5,11.063a9.5,9.5,0,1,0,9.65-9.319A9.529,9.529,0,0,0,203.325,1964.427Z" fill="url(#linear-gradient)"/>
    <path id="Path_6629" data-name="Path 6629" d="M237,1993.093v1.7h-1.7v-1.664h-.862v1.664H232.7v-1.69h-2.564v-1.715h1.655v-8.653h-1.662v-1.728h2.561v-1.717h1.715v1.661h.853v-1.643h1.731v1.644c.487.039.925.04,1.35.113a2.526,2.526,0,0,1,2.1,2.388,13.08,13.08,0,0,1-.012,1.97,3.946,3.946,0,0,1-.437,1.318.579.579,0,0,0,.008.618,5.327,5.327,0,0,1,.436,1.423,10.479,10.479,0,0,1,.017,1.566,2.6,2.6,0,0,1-2.672,2.746C237.541,1993.1,237.3,1993.093,237,1993.093Zm-3.444-1.737c1.48,0,2.891.021,4.3-.01.578-.013.853-.367.866-.97.011-.488.01-.976,0-1.464a.886.886,0,0,0-1-1c-.926-.02-1.852-.006-2.779-.007h-1.364c-.012.176-.028.291-.028.407C233.553,1989.3,233.554,1990.3,233.554,1991.356Zm.024-5.183h.56c1.229,0,2.458.012,3.687-.01a.845.845,0,0,0,.9-.937c.013-.42,0-.842,0-1.262,0-.965-.272-1.243-1.221-1.245-1.145,0-2.289,0-3.434,0h-.492Z" fill="url(#linear-gradient)"/>
    <path id="Path_6630" data-name="Path 6630" d="M211.971,1958.567v-1.709h1.723c0,.391.026.8-.007,1.213s.089.566.51.681a3.669,3.669,0,0,1,2.8,2.444,2.549,2.549,0,0,1,.092.987.737.737,0,0,1-.771.667.745.745,0,0,1-.845-.641,2.033,2.033,0,0,0-1.819-1.823,3.1,3.1,0,0,0-3.009.724,1.2,1.2,0,0,0,.009,1.8,2.724,2.724,0,0,0,1.815.784,6.288,6.288,0,0,1,2.779.639,3.207,3.207,0,0,1,1.878,2.9,3.293,3.293,0,0,1-2.148,2.933,4.448,4.448,0,0,1-.516.2c-.763.262-.764.26-.764,1.078v.887h-1.719v-1.561a23.5,23.5,0,0,1-2.323-1.295,2.737,2.737,0,0,1-1.13-2.22.848.848,0,0,1,1.666-.289,2.377,2.377,0,0,0,2.75,1.915,4.366,4.366,0,0,0,1.826-.619,1.216,1.216,0,0,0,0-2.164,4,4,0,0,0-1.626-.593,7.26,7.26,0,0,1-2.771-.676,3.181,3.181,0,0,1-1.839-2.919,3.269,3.269,0,0,1,2.135-2.884A12.26,12.26,0,0,1,211.971,1958.567Z" fill="url(#linear-gradient)"/>
  </g>
</svg>
