<svg xmlns="http://www.w3.org/2000/svg" xmlns:xlink="http://www.w3.org/1999/xlink" width="55.028" height="55.022" viewBox="0 0 55.028 55.022">
  <defs>
    <linearGradient id="linear-gradient" x1="0.5" y1="1" x2="0.5" gradientUnits="objectBoundingBox">
      <stop offset="0" stop-color="#542e8a"/>
      <stop offset="0.116" stop-color="#54378f"/>
      <stop offset="0.307" stop-color="#544f9c"/>
      <stop offset="0.548" stop-color="#5577b2"/>
      <stop offset="0.827" stop-color="#56aed1"/>
      <stop offset="0.941" stop-color="#57c7df"/>
      <stop offset="1" stop-color="#57c7df"/>
    </linearGradient>
  </defs>
  <g id="Group_3635" data-name="Group 3635" transform="translate(-196.536 -2657.758)">
    <path id="Path_6666" data-name="Path 6666" d="M196.536,2687.626V2682.9a17.637,17.637,0,0,1,.478-2.614,4.472,4.472,0,0,1,1.154-1.932,1.542,1.542,0,0,0,.637-1.322c0-2.108-.047-4.221.069-6.324a11.392,11.392,0,0,1,10.614-10.612c2.138-.119,4.288-.029,6.431-.089a1.432,1.432,0,0,0,1.034-.486,2.84,2.84,0,0,1,2.1-1.318c.876-.14,1.751-.3,2.626-.444H226.4a12.442,12.442,0,0,1,1.357.249c.976.286,2.321.33,2.82.995a2.719,2.719,0,0,0,2.664,1.029c1.109-.014,2.22-.023,3.329,0a12.853,12.853,0,0,1,12.657,12.143c.1,1.641,0,3.294.083,4.936a3.016,3.016,0,0,0,.621,1.185c.362.59.959,1.122,1.09,1.755a25.479,25.479,0,0,1-.006,10.443c-.131.63-.743,1.154-1.105,1.744a2.908,2.908,0,0,0-.6,1.2c-.08,2.109.013,4.225-.1,6.331a11.4,11.4,0,0,1-10.7,10.667c-2,.11-4.007.069-6.01.055a1.6,1.6,0,0,0-1.67.819,2.551,2.551,0,0,1-1.586.948,25.8,25.8,0,0,1-10.445-.015c-.63-.132-1.154-.744-1.743-1.108a2.906,2.906,0,0,0-1.194-.605c-2.109-.077-4.226.019-6.332-.1a11.392,11.392,0,0,1-10.663-10.7c-.116-2.106-.032-4.222-.094-6.332a1.426,1.426,0,0,0-.467-1.044,2.9,2.9,0,0,1-1.341-2.205C196.845,2689.3,196.682,2688.467,196.536,2687.626Zm41.613-2.379a14.109,14.109,0,1,0-14.124,14.157A14.1,14.1,0,0,0,238.149,2685.247Zm-21.415-23.487c-7.638,2.009-14.511,9.232-16.148,16.188,3.019,0,6.021.018,9.022-.028.292,0,.623-.363.859-.626,1.3-1.458,2.361-3.262,3.926-4.325,1.843-1.251,2.739-2.55,2.381-4.752a1.285,1.285,0,0,1,.721-1.038c.7-.129.837.481.837,1.068,0,.728,0,1.456,0,2.021a46.813,46.813,0,0,1,5.779-.676,44.884,44.884,0,0,1,5.634.692c0-3.116.026-6.3-.04-9.475a1.361,1.361,0,0,0-.869-.951,25.388,25.388,0,0,0-9.6-.043.962.962,0,0,0-.9,1.1,30.394,30.394,0,0,1-.046,3.109c-.029.31-.473.582-.727.87-.276-.3-.729-.573-.791-.915A12.943,12.943,0,0,1,216.734,2661.76Zm14.616,46.966c6.422-1.014,15.729-10.366,16.1-16.157-2.971,0-5.939-.02-8.906.03-.321.006-.687.377-.944.66-1.338,1.474-2.425,3.3-4.025,4.377-1.816,1.218-2.576,2.516-2.233,4.594.1.575-.064,1.143-.781,1.15s-.81-.567-.809-1.143c0-.721,0-1.442,0-1.981a46.5,46.5,0,0,1-5.713.673,45.748,45.748,0,0,1-5.634-.679c.031-.053-.033.006-.033.064-.013,3.149-.048,6.3.012,9.445.006.322.544.845.907.918a25.742,25.742,0,0,0,9.493.045,1.006,1.006,0,0,0,.967-1.16,23.846,23.846,0,0,1,.043-3c.037-.335.5-.624.773-.935.261.32.687.611.749.966A12.736,12.736,0,0,1,231.35,2708.726Zm16.192-30.778c-2.038-7.642-9.157-14.443-16.188-16.155,0,3.051-.012,6.084.023,9.116a1.068,1.068,0,0,0,.514.7,16.187,16.187,0,0,1,5.78,5.766,1.173,1.173,0,0,0,.795.545C241.465,2677.962,244.464,2677.948,247.542,2677.948ZM216.73,2708.74c0-3.052.018-6.08-.031-9.106,0-.282-.406-.588-.673-.829-1.478-1.331-3.335-2.413-4.366-4.026a4.523,4.523,0,0,0-4.814-2.247c-2.078.167-4.179.037-6.3.037C202.556,2700.219,209.674,2706.967,216.73,2708.74Zm22.024-17.776c3.392,0,6.576,0,9.76,0,.774,0,.921-.537,1.021-1.132a28.3,28.3,0,0,0,.023-9.088,1.207,1.207,0,0,0-1.412-1.207c-2.828.045-5.658.013-8.487.021a7.207,7.207,0,0,0-.886.116A16.426,16.426,0,0,1,238.754,2690.964Zm-29.417-11.4H199.5c-.724,0-.851.531-.946,1.082a28.026,28.026,0,0,0-.02,9.193,1.159,1.159,0,0,0,1.358,1.142c2.434-.033,4.87-.011,7.3-.011h2.135A16.568,16.568,0,0,1,209.337,2679.565Zm26.609,29.232a10.067,10.067,0,0,0,11.588-11.485C242.342,2704.72,242.049,2705.011,235.946,2708.8Zm-35.489-11.6c-.791,8.489,6.44,12.655,11.538,11.511C206.206,2705.153,206.04,2704.988,200.457,2697.2Zm.063-23.76a27.133,27.133,0,0,1,11.728-11.745C204.521,2660.929,199.639,2666.849,200.52,2673.437Zm47.065.035c.417-7.359-6.344-12.423-11.594-11.674A26.852,26.852,0,0,1,247.585,2673.472Z" fill="url(#linear-gradient)"/>
  </g>
</svg>
