<svg xmlns="http://www.w3.org/2000/svg" xmlns:xlink="http://www.w3.org/1999/xlink" width="43.352" height="68.179" viewBox="0 0 43.352 68.179">
  <defs>
    <linearGradient id="linear-gradient" x1="0.5" y1="1" x2="0.5" gradientUnits="objectBoundingBox">
      <stop offset="0" stop-color="#542e8a"/>
      <stop offset="0.116" stop-color="#54378f"/>
      <stop offset="0.307" stop-color="#544f9c"/>
      <stop offset="0.548" stop-color="#5577b2"/>
      <stop offset="0.827" stop-color="#56aed1"/>
      <stop offset="0.941" stop-color="#57c7df"/>
      <stop offset="1" stop-color="#57c7df"/>
    </linearGradient>
    <linearGradient id="linear-gradient-6" x1="0.5" y1="1" x2="0.5" y2="0" xlink:href="#linear-gradient"/>
  </defs>
  <g id="Group_3637" data-name="Group 3637" transform="translate(-202.374 -1823.487)">
    <path id="Path_6668" data-name="Path 6668" d="M234.7,1823.487c.155.47.554,1.062.4,1.378a1.728,1.728,0,0,1-1.319.606c-2.162.062-4.327.027-6.454.027-.7,3.14-1.486,4.1-3.26,4.106-1.8.009-2.649-1.028-3.248-4.031-.365-.023-.754-.068-1.144-.069q-6.72-.008-13.441,0c-1.684,0-1.862.175-1.863,1.8q0,30.276,0,60.551c0,1.539.236,1.789,1.766,1.793,4.835.012,9.67,0,14.506.005.354,0,.777-.116,1.049.036a6.687,6.687,0,0,1,1.141,1.006,11.7,11.7,0,0,1-1.108.916c-.156.1-.433.021-.655.021q-7.518,0-15.037,0c-2.564,0-3.628-1.058-3.629-3.648q-.011-30.408-.025-60.817a3.6,3.6,0,0,1,2.242-3.682Zm-11.972,2.077a9.271,9.271,0,0,0,.833,1.847,1.091,1.091,0,0,0,1.04-.047,8.486,8.486,0,0,0,.7-1.8Z" fill="url(#linear-gradient)"/>
    <path id="Path_6669" data-name="Path 6669" d="M243.482,1823.487a3.669,3.669,0,0,1,2.244,3.815q-.056,30.267-.025,60.535c0,2.777-1.015,3.8-3.747,3.8-5.011,0-10.023.016-15.034-.022a2.181,2.181,0,0,1-1.5-.536c-.544-.632.1-1.4,1.193-1.41,3.326-.023,6.652-.01,9.978-.01,1.819,0,3.637-.025,5.455.007,1.142.021,1.7-.379,1.7-1.622q-.031-30.468,0-60.934c0-1.234-.513-1.673-1.682-1.616a20.83,20.83,0,0,1-2.924-.02,1.849,1.849,0,0,1-1.325-.6c-.167-.312.205-.911.34-1.384Z" fill="url(#linear-gradient)"/>
    <path id="Path_6670" data-name="Path 6670" d="M208.529,1881.273h30.944v-47.427H208.529v1.519q0,7.919,0,15.836a3.168,3.168,0,0,1-.109,1.306,1.327,1.327,0,0,1-.932.721c-.323-.011-.7-.435-.92-.769-.146-.223-.064-.6-.064-.912q0-8.982,0-17.965c0-1.634.2-1.831,1.847-1.831q15.7,0,31.406,0c1.643,0,1.845.2,1.845,1.834q0,23.953,0,47.908c0,1.71-.177,1.88-1.935,1.88q-15.636,0-31.273,0c-1.71,0-1.89-.184-1.89-1.924q0-11.976,0-23.953c0-.267-.094-.606.033-.783.276-.383.628-.861,1.027-.949.238-.053.726.507.912.885a2.9,2.9,0,0,1,.057,1.182q0,10.845,0,21.691Z" fill="url(#linear-gradient)"/>
    <path id="Path_6671" data-name="Path 6671" d="M224.051,1876.206c-3.9,0-7.806-.037-11.708.02-1.288.019-1.711-.471-1.7-1.72q.055-9.647,0-19.292c-.007-1.245.4-1.737,1.69-1.731q11.709.06,23.417,0c1.275-.007,1.711.451,1.7,1.715-.041,6.43-.015,12.861-.022,19.292,0,1.56-.17,1.712-1.8,1.713Q229.839,1876.21,224.051,1876.206Zm11.351-6.166c-2.226,0-4.387-.03-6.546.012-1.175.023-1.7-.412-1.666-1.639.057-2.3.011-4.612.018-6.918.005-1.561.2-1.761,1.768-1.768,2.117-.009,4.234,0,6.394,0v-4.166H212.69v18.564H235.4Zm-.034-2.116v-6.062h-6.126v6.062Z" fill="url(#linear-gradient)"/>
    <path id="Path_6672" data-name="Path 6672" d="M227.74,1842a4.346,4.346,0,0,1-1.145.383,1.955,1.955,0,0,1-1.068-.3c-.317-.2-.528-.765-.806-.78a5.337,5.337,0,0,0-2,.3c-.168.059-.3.934-.166,1.027a3.454,3.454,0,0,0,1.594.652c1.958.161,3.04.862,3.413,2.37.381,1.537-.253,2.647-1.931,3.649-.3.182-.338.772-.576,1.119a14.279,14.279,0,0,1-1.007,1.187c-.338-.394-.942-.778-.958-1.185-.03-.777-.392-1-.987-1.32a3.292,3.292,0,0,1-1.327-1.389c-.167-.346.145-.924.242-1.4.46.107,1.181.07,1.332.346.582,1.063,1.515.852,2.335.718a1.389,1.389,0,0,0,.893-1.034c-.009-.348-.559-.794-.97-.984-.368-.17-.873-.023-1.313-.064a3.044,3.044,0,0,1-2.786-2.443,2.893,2.893,0,0,1,1.616-3.31,1.385,1.385,0,0,0,.965-1.347c.036-.409.632-.769.976-1.151.333.393.917.768.945,1.182a1.642,1.642,0,0,0,.929,1.407,8.874,8.874,0,0,1,1.507,1.705Z" fill="url(#linear-gradient)"/>
    <path id="Path_6673" data-name="Path 6673" d="M224.049,1887.487a35.933,35.933,0,0,1-3.845-.048c-.444-.048-.827-.654-1.237-1,.41-.307.812-.865,1.231-.879q3.848-.123,7.7,0c.42.013.822.571,1.233.877-.41.352-.793.958-1.235,1.006A35.952,35.952,0,0,1,224.049,1887.487Z" fill="url(#linear-gradient-6)"/>
  </g>
</svg>
