<svg xmlns="http://www.w3.org/2000/svg" xmlns:xlink="http://www.w3.org/1999/xlink" width="52.098" height="52.149" viewBox="0 0 52.098 52.149">
  <defs>
    <linearGradient id="linear-gradient" y1="0.5" x2="1" y2="0.5" gradientUnits="objectBoundingBox">
      <stop offset="0" stop-color="#542e8a"/>
      <stop offset="0.116" stop-color="#54378f"/>
      <stop offset="0.307" stop-color="#544f9c"/>
      <stop offset="0.548" stop-color="#5577b2"/>
      <stop offset="0.827" stop-color="#56aed1"/>
      <stop offset="0.941" stop-color="#57c7df"/>
      <stop offset="1" stop-color="#57c7df"/>
    </linearGradient>
    <linearGradient id="linear-gradient-3" x1="0" y1="0.5" x2="1" y2="0.5" xlink:href="#linear-gradient"/>
  </defs>
  <g id="Group_1826" data-name="Group 1826" transform="translate(-9971.618 -5667.644)">
    <path id="Path_2780" data-name="Path 2780" d="M10023.561,5697.168a3.714,3.714,0,0,0-3.67-3.4c-.395-.024-.794,0-1.232,0v-.634q0-3.779,0-7.558a4.08,4.08,0,0,0-4.414-4.417q-4.488,0-8.976,0h-.616a10.073,10.073,0,0,0,.03-6.6,9.55,9.55,0,0,0-4.053-5.191c-3.661-2.263-7.444-2.345-11.011.054-4.19,2.817-5.315,6.879-4.057,11.737h-.555q-4.513,0-9.026,0a4.064,4.064,0,0,0-4.358,4.369q-.007,14.958,0,29.916a4.048,4.048,0,0,0,4.326,4.347q19.182.009,38.365,0a5.731,5.731,0,0,0,1.4-.163,4.046,4.046,0,0,0,2.941-4.11c.011-2.572,0-5.143,0-7.715v-.6c.3,0,.539,0,.781,0,2.329-.024,3.943-1.269,4.149-3.587A36.9,36.9,0,0,0,10023.561,5697.168Zm-28.42-27.771a8.4,8.4,0,1,1-8.4,8.356A8.386,8.386,0,0,1,9995.141,5669.4Zm-21.839,18.792a30.974,30.974,0,0,1,.123-3.451,2.089,2.089,0,0,1,2.274-1.892q5.2-.029,10.393,0a.825.825,0,0,1,.543.362,9.856,9.856,0,0,0,8.727,4.639,9.709,9.709,0,0,0,8.218-4.583.87.87,0,0,1,.84-.442c3.255.014,6.509.007,9.764.009,1.889,0,2.791.908,2.794,2.8q0,1.835,0,3.674c0,.052-.009.1-.018.218H9973.3C9973.3,5689.083,9973.291,5688.636,9973.3,5688.189Zm43.546,27.989a2.075,2.075,0,0,1-2.289,1.928c-.21.007-.42.006-.63.006h-37.57c-.157,0-.315,0-.473,0a2.254,2.254,0,0,1-2.537-2.228c-.114-1.543-.024-3.1-.024-4.686h43.56C10016.884,5712.876,10016.994,5714.539,10016.848,5716.178Zm.1-6.727h-43.63v-18.178h43.632v2.481h-.538c-2.87,0-5.74-.037-8.609.013a6.684,6.684,0,0,0-5.273,2.288,6.9,6.9,0,0,0-1.035,7.081c.841,2.4,2.8,3.522,5.2,3.946a8.593,8.593,0,0,0,1.462.106c2.729.01,5.459,0,8.188,0h.6Zm5.068-6.668a2.422,2.422,0,0,1-2.71,2.728c-3.8.006-7.594.041-11.389-.026a7.215,7.215,0,0,1-2.675-.623c-1.918-.832-2.825-2.834-2.5-5.176a4.748,4.748,0,0,1,5.017-4.246c1.959-.024,3.919,0,5.879,0q2.834,0,5.668,0a2.424,2.424,0,0,1,2.709,2.729Q10022.022,5700.474,10022.014,5702.783Z" fill="url(#linear-gradient)"/>
    <path id="Path_2781" data-name="Path 2781" d="M9994.486,5678.636c.489,0,.979-.015,1.469.007.589.025.864.305.863.832s-.28.81-.862.835c-.489.02-.98.007-1.469,0-.731,0-.918-.155-1.025-.892a.819.819,0,0,0-.67-.769c-.6-.131-1.054.327-1,1,.1,1.326.886,2.087,2.47,2.389.162,1.374.317,1.679.907,1.619,1.068-.108.742-.988.835-1.645.1-.014.179-.024.261-.04a2.523,2.523,0,0,0-.464-5.023c-.49,0-.979.015-1.469-.006-.582-.025-.865-.313-.865-.834s.282-.809.865-.834c.471-.02.944-.008,1.416-.005.787.006.952.151,1.085.941a.82.82,0,0,0,.872.734.79.79,0,0,0,.792-.811,2.241,2.241,0,0,0-1.151-2.147,9.036,9.036,0,0,0-1.342-.494,5.621,5.621,0,0,0-.069-.982.722.722,0,0,0-.814-.6c-1.059.118-.752.985-.836,1.65-.1.015-.178.026-.259.041a2.455,2.455,0,0,0-2.23,2.787A2.481,2.481,0,0,0,9994.486,5678.636Z" fill="url(#linear-gradient)"/>
    <path id="Path_2782" data-name="Path 2782" d="M10007.765,5697.117a3.358,3.358,0,1,0,3.329,3.411A3.378,3.378,0,0,0,10007.765,5697.117Zm-.054,5.036a1.678,1.678,0,1,1,1.7-1.626A1.674,1.674,0,0,1,10007.711,5702.153Z" fill="url(#linear-gradient-3)"/>
  </g>
</svg>
