<svg xmlns="http://www.w3.org/2000/svg" xmlns:xlink="http://www.w3.org/1999/xlink" width="60.698" height="58.601" viewBox="0 0 60.698 58.601">
  <defs>
    <linearGradient id="linear-gradient" x1="0.5" y1="1" x2="0.5" gradientUnits="objectBoundingBox">
      <stop offset="0" stop-color="#542e8a"/>
      <stop offset="0.116" stop-color="#54378f"/>
      <stop offset="0.307" stop-color="#544f9c"/>
      <stop offset="0.548" stop-color="#5577b2"/>
      <stop offset="0.827" stop-color="#56aed1"/>
      <stop offset="0.941" stop-color="#57c7df"/>
      <stop offset="1" stop-color="#57c7df"/>
    </linearGradient>
    <linearGradient id="linear-gradient-7" x1="0.5" y1="1" x2="0.5" y2="0" xlink:href="#linear-gradient"/>
  </defs>
  <g id="Group_3629" data-name="Group 3629" transform="translate(-193.701 -2183.002)">
    <path id="Path_6632" data-name="Path 6632" d="M193.7,2202.519a9.008,9.008,0,0,1,1.705-.327q24.522-.027,49.044-.013c1.53,0,1.655.142,1.66,1.714a9.105,9.105,0,0,1-.043,2c-.089.388-.56.69-.859,1.031-.267-.332-.686-.631-.767-1a9.508,9.508,0,0,1-.034-1.929H195.495v22.489H228a2.524,2.524,0,0,1,1.05.052c.334.168.778.553.774.837s-.461.65-.8.815a2.581,2.581,0,0,1-1.051.059q-16.17,0-32.341-.014a10.667,10.667,0,0,1-1.93-.355Z" fill="url(#linear-gradient)"/>
    <path id="Path_6633" data-name="Path 6633" d="M254.378,2225.4c0,3.83-.036,7.659.02,11.488a2.66,2.66,0,0,1-1.613,2.769,23.875,23.875,0,0,1-5.162,1.558,24.9,24.9,0,0,1-12.834-.994c-2.716-1.047-2.736-2.02-2.722-3.972.049-7.342.019-14.685.019-22.027,0-2.064.522-2.89,2.465-3.667a24.165,24.165,0,0,1,11.534-1.254,27.8,27.8,0,0,1,5.743,1.259c2.05.662,2.55,1.591,2.55,3.708Q254.379,2219.83,254.378,2225.4Zm-2.1-12.252c-3.2-2.755-16.012-2.489-18.035.072C236.748,2215.827,249.665,2215.845,252.278,2213.143Zm-.062,14.818a28.744,28.744,0,0,1-18,0,1.537,1.537,0,0,0,1.163,2.245c.795.221,1.574.518,2.38.674a25.687,25.687,0,0,0,13.186-.632C252.063,2229.874,252.626,2229.275,252.216,2227.961Zm-17.989-8.107c-.329,1.078-.131,1.853,1.053,2.18.91.252,1.8.609,2.721.777a24.811,24.811,0,0,0,13.075-.748c1.365-.491,1.464-.776,1.067-2.193A28.633,28.633,0,0,1,234.227,2219.854ZM234.208,2232a1.578,1.578,0,0,0,1.238,2.276c.722.19,1.422.473,2.151.618a25.1,25.1,0,0,0,13.527-.675c1.325-.469,1.434-.8,1.014-2.173A28.7,28.7,0,0,1,234.208,2232Zm.015-8.095a1.53,1.53,0,0,0,1.164,2.241c.833.229,1.651.533,2.5.7a25.5,25.5,0,0,0,13.174-.685,1.55,1.55,0,0,0,1.154-2.243A28.71,28.71,0,0,1,234.223,2223.9Zm-.023,12.153c-.194,1.653-.186,1.782,1.251,2.251a24.424,24.424,0,0,0,15.658-.038c1.342-.446,1.444-.784,1.033-2.161A28.843,28.843,0,0,1,234.2,2236.057Zm.021-20.261c-.35,1.173-.036,1.913,1.133,2.216.913.236,1.8.585,2.726.751a25.268,25.268,0,0,0,13.066-.762,1.511,1.511,0,0,0,1.059-2.2A28.632,28.632,0,0,1,234.221,2215.8Z" fill="url(#linear-gradient)"/>
    <path id="Path_6634" data-name="Path 6634" d="M199.289,2190.93c-.582,2.6-1.141,5.1-1.7,7.593-.148.658-.247,1.472-1.185,1.256-.856-.2-.66-.97-.527-1.58.58-2.657,1.218-5.3,1.773-7.966.219-1.051.683-1.338,1.745-1.095q14.76,3.368,29.537,6.666,4.788,1.077,9.577,2.158c.681.153,1.617.178,1.424,1.176-.223,1.155-1.177.646-1.841.5q-18.641-4.176-37.272-8.388C200.362,2191.144,199.9,2191.056,199.289,2190.93Z" fill="url(#linear-gradient)"/>
    <path id="Path_6635" data-name="Path 6635" d="M210.016,2215.23a8.9,8.9,0,1,1,8.883,8.87A8.887,8.887,0,0,1,210.016,2215.23Zm8.863,7.237a7.262,7.262,0,1,0-7.243-7.31A7.263,7.263,0,0,0,218.879,2222.467Z" fill="url(#linear-gradient)"/>
    <path id="Path_6636" data-name="Path 6636" d="M206.169,2224.165c-2.7.84-4.832-.693-6.8-3.142a5.868,5.868,0,0,1-1.649-4.429c.152-1.8-.357-3.812.29-5.371.629-1.518,2.4-2.541,3.586-3.855a3.287,3.287,0,0,1,2.809-1.142c1.971.082,3.948.028,5.922.021.635,0,1.29.065,1.287.858,0,.777-.64.87-1.285.866q-3.021-.016-6.041,0c-1.243.007-4.794,3.573-4.8,4.817-.01,1.579-.06,3.162.028,4.736a3.742,3.742,0,0,0,.654,1.668,6.566,6.566,0,0,0,7.245,3.276,10.356,10.356,0,0,1,3.069.015c.413.052.768.563,1.15.865-.37.273-.722.749-1.111.78C209.264,2224.228,208,2224.165,206.169,2224.165Z" fill="url(#linear-gradient)"/>
    <path id="Path_6637" data-name="Path 6637" d="M210.2,2184.907a32.57,32.57,0,0,1-1.578,3.028c-.227.349-.83.453-1.261.669-.082-.483-.359-1.04-.208-1.435.42-1.1,1.058-2.115,1.531-3.2.447-1.02,1.027-1.176,2.055-.742,6.792,2.871,13.607,5.686,20.415,8.519.837.348,1.68.683,2.51,1.049.622.276,1.571.434,1.193,1.406s-1.191.469-1.819.21c-3.681-1.52-7.352-3.063-11.029-4.595C218.119,2188.2,214.226,2186.581,210.2,2184.907Z" fill="url(#linear-gradient)"/>
    <path id="Path_6638" data-name="Path 6638" d="M231.151,2206.251c1.179,0,2.364-.071,3.533.037.421.039.8.51,1.2.783-.38.3-.753.842-1.142.855q-3.709.118-7.424,0c-.389-.013-.76-.558-1.14-.857.4-.273.783-.745,1.2-.781C228.63,2206.184,229.894,2206.251,231.151,2206.251Z" fill="url(#linear-gradient-7)"/>
    <path id="Path_6639" data-name="Path 6639" d="M219.705,2216.328c-.62-.064-1.248-.088-1.86-.2a2.168,2.168,0,0,1-1.88-1.863,2.091,2.091,0,0,1,1.244-2.317,2.289,2.289,0,0,0,.667-.426c.949-1.126.918-1.109,2.012-.134.252.224.767.133,1.061.333.371.252.9.666.883.99a1.359,1.359,0,0,1-.942.913,19.946,19.946,0,0,1-2.82.044l0,.409c.6.067,1.208.113,1.807.2a2.2,2.2,0,0,1,1.978,1.912,2.1,2.1,0,0,1-1.295,2.3,5.736,5.736,0,0,1-3.062.285c-.186-.05-.459.048-.576-.055a13.7,13.7,0,0,1-1.006-1.061c.348-.3.658-.8,1.051-.877a13.135,13.135,0,0,1,2.24-.059,2.187,2.187,0,0,0,.516-.142Z" fill="url(#linear-gradient)"/>
  </g>
</svg>
