<svg xmlns="http://www.w3.org/2000/svg" xmlns:xlink="http://www.w3.org/1999/xlink" width="51.807" height="51.806" viewBox="0 0 51.807 51.806">
  <defs>
    <linearGradient id="linear-gradient" x1="0.5" y1="1" x2="0.5" gradientUnits="objectBoundingBox">
      <stop offset="0" stop-color="#542e8a"/>
      <stop offset="0.116" stop-color="#54378f"/>
      <stop offset="0.307" stop-color="#544f9c"/>
      <stop offset="0.548" stop-color="#5577b2"/>
      <stop offset="0.827" stop-color="#56aed1"/>
      <stop offset="0.941" stop-color="#57c7df"/>
      <stop offset="1" stop-color="#57c7df"/>
    </linearGradient>
  </defs>
  <g id="Group_3447" data-name="Group 3447" transform="translate(-2655.338 -1949.916)">
    <path id="Path_6239" data-name="Path 6239" d="M2691.461,2001.722c-1.022-.2-2.067-.314-3.062-.6a14.645,14.645,0,1,1,18.545-16.37c.072.429.134.859.2,1.289v2.024a2.509,2.509,0,0,0-.075.338,14.011,14.011,0,0,1-1.577,5.384,14.384,14.384,0,0,1-8.952,7.333c-.994.289-2.036.408-3.056.605Zm.977-1.726a12.95,12.95,0,1,0-12.919-13A13,13,0,0,0,2692.438,2000Z" fill="url(#linear-gradient)"/>
    <path id="Path_6240" data-name="Path 6240" d="M2655.338,1964.569a14.674,14.674,0,1,1,14.652,14.694A14.713,14.713,0,0,1,2655.338,1964.569Zm1.725,0a12.949,12.949,0,1,0,12.95-12.928A13,13,0,0,0,2657.063,1964.568Z" fill="url(#linear-gradient)"/>
    <path id="Path_6241" data-name="Path 6241" d="M2689.553,1955.276l1.106,1.149-2.073,1.949.062.144c.17.007.339.02.509.022,1.331.019,2.664-.01,3.992.062a9.348,9.348,0,0,1,8.7,8.259c.173,1.8.029,3.627.029,5.476h-1.611c-.009-.164-.025-.34-.026-.517,0-1.162,0-2.325,0-3.488a7.776,7.776,0,0,0-7.824-8.054c-1.256-.039-2.513-.006-3.864-.006l2.15,2.088-1.249,1.187-4.095-4.1Z" fill="url(#linear-gradient)"/>
    <path id="Path_6242" data-name="Path 6242" d="M2660.544,1979.293h1.669c.008.182.023.36.023.538,0,1.163,0,2.325,0,3.488a7.788,7.788,0,0,0,7.889,8.043c.939.021,1.879,0,2.8,0l-2.039-2.025,1.268-1.2,4.113,4.13-4.158,4.161-1.156-1.255,2.076-1.925-.065-.151c-.207,0-.415.009-.622,0a27.171,27.171,0,0,1-4.372-.274,9.242,9.242,0,0,1-7.412-8.662C2660.45,1982.552,2660.544,1980.933,2660.544,1979.293Z" fill="url(#linear-gradient)"/>
    <path id="Path_6243" data-name="Path 6243" d="M2703.7,1987.043a11.227,11.227,0,1,1-11.246-11.223A11.273,11.273,0,0,1,2703.7,1987.043Zm-1.726-.053a9.5,9.5,0,1,0-9.44,9.556A9.53,9.53,0,0,0,2701.969,1986.99Z" fill="url(#linear-gradient)"/>
    <path id="Path_6244" data-name="Path 6244" d="M2670.012,1953.364a11.226,11.226,0,1,1-11.225,11.244A11.261,11.261,0,0,1,2670.012,1953.364Zm-9.495,11.063a9.5,9.5,0,1,0,9.649-9.319A9.528,9.528,0,0,0,2660.517,1964.427Z" fill="url(#linear-gradient)"/>
    <path id="Path_6245" data-name="Path 6245" d="M2694.189,1993.093v1.7h-1.7v-1.664h-.863v1.664h-1.733v-1.69h-2.563v-1.715h1.654v-8.653h-1.662v-1.728h2.562v-1.717h1.714v1.661h.854v-1.643h1.73v1.644c.488.039.925.04,1.351.113a2.525,2.525,0,0,1,2.095,2.388,13.194,13.194,0,0,1-.012,1.97,3.95,3.95,0,0,1-.438,1.318.581.581,0,0,0,.008.618,5.3,5.3,0,0,1,.436,1.423,10.334,10.334,0,0,1,.017,1.566,2.6,2.6,0,0,1-2.672,2.746C2694.732,1993.1,2694.5,1993.093,2694.189,1993.093Zm-3.443-1.737c1.479,0,2.891.021,4.3-.01.578-.013.853-.367.867-.97.01-.488.009-.976,0-1.464a.887.887,0,0,0-1-1c-.926-.02-1.852-.006-2.778-.007h-1.364c-.013.176-.028.291-.028.407C2690.745,1989.3,2690.746,1990.3,2690.746,1991.356Zm.024-5.183h.56c1.229,0,2.458.012,3.687-.01a.845.845,0,0,0,.9-.937c.013-.42,0-.842,0-1.262,0-.965-.271-1.243-1.22-1.245-1.145,0-2.29,0-3.435,0h-.491Z" fill="url(#linear-gradient)"/>
    <path id="Path_6246" data-name="Path 6246" d="M2669.163,1958.567v-1.709h1.723c0,.391.025.8-.008,1.213s.089.566.51.681a3.668,3.668,0,0,1,2.8,2.444,2.527,2.527,0,0,1,.092.987.736.736,0,0,1-.77.667.746.746,0,0,1-.846-.641,2.031,2.031,0,0,0-1.818-1.823,3.1,3.1,0,0,0-3.01.724,1.206,1.206,0,0,0,.01,1.8,2.721,2.721,0,0,0,1.814.784,6.293,6.293,0,0,1,2.78.639,3.2,3.2,0,0,1,1.877,2.9,3.292,3.292,0,0,1-2.147,2.933,4.52,4.52,0,0,1-.516.2c-.764.262-.764.26-.765,1.078v.887h-1.719v-1.561a23.633,23.633,0,0,1-2.323-1.295,2.739,2.739,0,0,1-1.129-2.22.847.847,0,0,1,1.665-.289,2.378,2.378,0,0,0,2.75,1.915,4.361,4.361,0,0,0,1.826-.619,1.216,1.216,0,0,0,0-2.164,4.009,4.009,0,0,0-1.626-.593,7.255,7.255,0,0,1-2.771-.676,3.181,3.181,0,0,1-1.84-2.919,3.272,3.272,0,0,1,2.135-2.884A12.368,12.368,0,0,1,2669.163,1958.567Z" fill="url(#linear-gradient)"/>
  </g>
</svg>
