<svg xmlns="http://www.w3.org/2000/svg" xmlns:xlink="http://www.w3.org/1999/xlink" width="59.678" height="57.541" viewBox="0 0 59.678 57.541">
  <defs>
    <linearGradient id="linear-gradient" x1="0.5" y1="1" x2="0.5" gradientUnits="objectBoundingBox">
      <stop offset="0" stop-color="#542e8a"/>
      <stop offset="0.116" stop-color="#54378f"/>
      <stop offset="0.307" stop-color="#544f9c"/>
      <stop offset="0.548" stop-color="#5577b2"/>
      <stop offset="0.827" stop-color="#56aed1"/>
      <stop offset="0.941" stop-color="#57c7df"/>
      <stop offset="1" stop-color="#57c7df"/>
    </linearGradient>
  </defs>
  <g id="Group_3630" data-name="Group 3630" transform="translate(-194.211 -2301.773)">
    <path id="Path_6640" data-name="Path 6640" d="M253.889,2316.286c-1.008,3.623-2.029,7.241-3.019,10.868-1.033,3.784-2.031,7.577-3.051,11.364a5.508,5.508,0,0,1-5.734,4.5c-8.753.029-17.506.012-26.259.007-.5,0-1-.055-1.577-.089l.955,3.482h1.445c8.52,0,17.039-.027,25.559.011a6.447,6.447,0,1,1-5.792,3.926c.149-.348.32-.687.51-1.094h-16.1a7.233,7.233,0,0,1,.928,4.773,6.417,6.417,0,0,1-12.261,1.257,6.231,6.231,0,0,1,2.028-7.417,1.466,1.466,0,0,0,.577-1.925q-4.016-14.544-7.973-29.1c-1.019-3.746-2.011-7.5-2.947-11.267a1.184,1.184,0,0,0-1.424-1.081c-1.821.061-3.644.019-5.542.019v-2.724c2.675,0,5.345-.068,8.005.068.435.023,1.029.885,1.2,1.463q1.41,4.806,2.616,9.67a1.511,1.511,0,0,0,1.782,1.4q21.94-.069,43.882,0a7.5,7.5,0,0,1,2.194.726Zm-3.265.945H207.238a2.066,2.066,0,0,0,0,.434q2.817,10.272,5.65,20.541a2.772,2.772,0,0,0,3.063,2.138q13,.006,26.007,0a2.77,2.77,0,0,0,3.123-2.351c.586-2.092,1.135-4.195,1.694-6.295C248.055,2326.9,249.329,2322.1,250.624,2317.231Zm-31.513,35.754a3.678,3.678,0,1,0-3.8,3.6A3.711,3.711,0,0,0,219.111,2352.985Zm26.884-.139a3.666,3.666,0,1,0-3.65,3.752A3.675,3.675,0,0,0,245.995,2352.846Z" fill="url(#linear-gradient)"/>
  </g>
</svg>
