<svg xmlns="http://www.w3.org/2000/svg" xmlns:xlink="http://www.w3.org/1999/xlink" width="65.07" height="65.069" viewBox="0 0 65.07 65.069">
  <defs>
    <linearGradient id="linear-gradient" x1="0.5" y1="1" x2="0.5" gradientUnits="objectBoundingBox">
      <stop offset="0" stop-color="#542e8a"/>
      <stop offset="0.116" stop-color="#54378f"/>
      <stop offset="0.307" stop-color="#544f9c"/>
      <stop offset="0.548" stop-color="#5577b2"/>
      <stop offset="0.827" stop-color="#56aed1"/>
      <stop offset="0.941" stop-color="#57c7df"/>
      <stop offset="1" stop-color="#57c7df"/>
    </linearGradient>
  </defs>
  <g id="Group_3636" data-name="Group 3636" transform="translate(-191.515 -2889.218)">
    <path id="Path_6667" data-name="Path 6667" d="M256.585,2922.516c-.046.138-.1.274-.137.414a4.977,4.977,0,0,1-9.569.349c-.047-.14-.09-.281-.148-.465h-8.478a14.435,14.435,0,0,1-3.446,8.253l2.122,2.12c1.168,1.168,2.346,2.327,3.5,3.509a.614.614,0,0,0,.859.137,4.736,4.736,0,0,1,5.308.512,4.955,4.955,0,1,1-7.507,1.744.765.765,0,0,0-.2-1.062c-1.841-1.811-3.662-3.643-5.527-5.505a14.394,14.394,0,0,1-8.262,3.428v8.457c2.882,1.041,4.342,3.244,3.848,5.772a4.977,4.977,0,0,1-9.834-.207,5.035,5.035,0,0,1,3.876-5.536v-8.478a14.466,14.466,0,0,1-8.289-3.481c-.616.641-1.206,1.27-1.813,1.882-1.252,1.264-2.5,2.527-3.777,3.771a.616.616,0,0,0-.144.859,4.731,4.731,0,0,1-.508,5.308,4.954,4.954,0,1,1-1.748-7.506.765.765,0,0,0,1.063-.2c1.809-1.844,3.64-3.666,5.5-5.536a14.387,14.387,0,0,1-3.426-8.252H201.4c-1.068,2.87-3.2,4.309-5.707,3.859a4.975,4.975,0,0,1-.056-9.812c2.522-.483,4.649.931,5.771,3.857h8.434a14.379,14.379,0,0,1,3.435-8.245c-.111-.129-.2-.242-.3-.342-1.767-1.766-3.542-3.526-5.3-5.3a.609.609,0,0,0-.858-.154,4.919,4.919,0,0,1-5.612-.721A4.978,4.978,0,1,1,209,2904.46a.68.68,0,0,0,.158.96c1.857,1.825,3.694,3.671,5.589,5.561a14.406,14.406,0,0,1,8.248-3.425v-8.337a14.26,14.26,0,0,1-2.158-1.264,4.672,4.672,0,0,1-1.606-4.914,4.841,4.841,0,0,1,3.584-3.672c.16-.047.318-.1.476-.151h1.525c.159.051.315.108.476.151a4.976,4.976,0,0,1,.762,9.374c-.306.133-.627.232-.943.348v8.466a14.387,14.387,0,0,1,8.248,3.42c1.89-1.883,3.729-3.727,5.586-5.552a.686.686,0,0,0,.167-.959,4.95,4.95,0,0,1,5.557-7.026,4.952,4.952,0,0,1,1.926,8.725,4.732,4.732,0,0,1-5.307.5.615.615,0,0,0-.859.147c-1.244,1.271-2.506,2.525-3.771,3.776-.612.606-1.245,1.192-1.887,1.8a14.46,14.46,0,0,1,3.488,8.3h8.477c.058-.184.1-.325.148-.465a4.977,4.977,0,0,1,9.568.346c.036.141.091.277.137.416Zm-36.226.7a5.693,5.693,0,1,1,7.383.025,9.628,9.628,0,0,1,5.462,6.469,12.17,12.17,0,1,0-18.332-.069C216.7,2925.554,217.153,2925.027,220.359,2923.214Zm3.7,10.746a12.413,12.413,0,0,0,6.915-2.153.8.8,0,0,0,.387-.941,7.39,7.39,0,0,0-14.631.07.733.733,0,0,0,.359.836A12.351,12.351,0,0,0,224.056,2933.96Zm.063-18.73a3.629,3.629,0,0,0-3.714,3.555,3.644,3.644,0,1,0,7.287.142A3.627,3.627,0,0,0,224.119,2915.23Zm-3.011,34.1a2.936,2.936,0,1,0,2.933-2.942A2.924,2.924,0,0,0,221.108,2949.331Zm2.9-52.213a2.933,2.933,0,1,0-2.887-2.925A2.911,2.911,0,0,0,224.005,2897.118Zm-24.591,24.676a2.933,2.933,0,1,0-2.922,2.891A2.911,2.911,0,0,0,199.414,2921.794Zm49.269-.061a2.9,2.9,0,0,0,2.853,2.954,2.931,2.931,0,1,0,.113-5.86A2.9,2.9,0,0,0,248.683,2921.733Zm-44.11,22.436a2.938,2.938,0,0,0,2.934-2.955,2.978,2.978,0,0,0-2.922-2.919,2.947,2.947,0,0,0-2.953,2.94A2.907,2.907,0,0,0,204.573,2944.169Zm41.873-2.946a2.923,2.923,0,0,0-2.941-2.939,2.933,2.933,0,0,0,0,5.867A2.893,2.893,0,0,0,246.446,2941.223Zm0-38.943a2.907,2.907,0,0,0-2.927-2.945,2.938,2.938,0,1,0,2.927,2.945Zm-41.888-2.925a2.9,2.9,0,0,0-2.928,2.942,2.938,2.938,0,1,0,2.928-2.942Z" fill="url(#linear-gradient)"/>
  </g>
</svg>
