<svg xmlns="http://www.w3.org/2000/svg" xmlns:xlink="http://www.w3.org/1999/xlink" width="54.822" height="66.778" viewBox="0 0 54.822 66.778">
  <defs>
    <linearGradient id="linear-gradient" x1="0.5" y1="1" x2="0.5" gradientUnits="objectBoundingBox">
      <stop offset="0" stop-color="#542e8a"/>
      <stop offset="0.116" stop-color="#54378f"/>
      <stop offset="0.307" stop-color="#544f9c"/>
      <stop offset="0.548" stop-color="#5577b2"/>
      <stop offset="0.827" stop-color="#56aed1"/>
      <stop offset="0.941" stop-color="#57c7df"/>
      <stop offset="1" stop-color="#57c7df"/>
    </linearGradient>
    <linearGradient id="linear-gradient-2" x1="0.5" y1="1" x2="0.5" y2="0" xlink:href="#linear-gradient"/>
  </defs>
  <g id="Group_3632" data-name="Group 3632" transform="translate(-191.753 -2532.01)">
    <path id="Path_6659" data-name="Path 6659" d="M202.964,2598.788a10.253,10.253,0,0,1-.748-1.957,12.791,12.791,0,0,1-.028-2.342,3.9,3.9,0,0,1,4.171-4.153c2.607-.03,5.215,0,7.822-.011.3,0,.6-.041.965-.068v-3.024c-3.495-.949-6.92-1.7-10.216-2.824a27.859,27.859,0,0,1-8.657-5.453c-2.423-2.028-3.174-5.115.292-7.469a25,25,0,0,1-4.437-10.441,24.492,24.492,0,0,1,2.867-16.472c.449-.806,1.032-1.384,1.979-.817s.706,1.364.261,2.152a21.944,21.944,0,0,0-2.83,9.673c1.458.14,2.865.274,4.271.411.821.08,1.642.159,2.462.249a4.1,4.1,0,0,1,3.593,2.8c.376.971.741,1.947,1.067,2.935a1.126,1.126,0,0,0,1.362.866c1.87-.151,3.326-.692,3.8-2.8.61-2.7,2.46-3.832,5.168-3.755.909.025,1.822-.112,2.733-.134a3.35,3.35,0,0,1,3.524,4.185c-.3,1.532-.7,3.046-.993,4.58a4.512,4.512,0,0,1-3.329,3.78c-.694.21-1.362.5-2.027.756.551,2.284.793,2.465,2.893,2.277,1.99-.178,3.983-.322,5.97-.53a5.392,5.392,0,0,1,4.736,1.637c.325.339.689.642,1.024.952,7.4-5.826,9.435-16.175,7.126-22.691a8.321,8.321,0,0,0-.827.364,3.91,3.91,0,0,1-4.9-.64c-1.307-1.145-2.649-2.254-3.914-3.443-.872-.821-1.575-.938-2.367.089a3.859,3.859,0,0,1-3.56,1.512c-2.9-.238-5.809-.405-8.691-.779a6.161,6.161,0,0,1-2.8-1.244c-2.113-1.622-2.161-3.885-.151-5.627,1.9-1.643,3.727-3.284,4.041-5.977.019-.162.023-.327.042-.6a20.866,20.866,0,0,0-8.467,2.452c-.308.161-.623.487-.913.465-.615-.048-1.433-.083-1.773-.47-.6-.683-.187-1.468.59-1.786a47.263,47.263,0,0,1,7.383-2.8,23.806,23.806,0,0,1,19.1,3.808c.21.141.435.264.688.416.148-.209.27-.385.4-.558a3.873,3.873,0,0,1,6.268-.447c7.745,8.254,10.428,17.974,7.459,28.87-2.943,10.8-10.172,17.716-20.865,21.007-.331.1-.671.177-1.005.269-.124.034-.244.081-.421.14v4.208h2.56c2.086,0,4.172-.023,6.258.007a3.894,3.894,0,0,1,4.161,4.158,12.878,12.878,0,0,1-.028,2.342,10.2,10.2,0,0,1-.752,1.952Zm25.523-23.26a3.511,3.511,0,0,0-3.794-1.7c-1.848.255-3.719.342-5.579.5-3.229.278-4.343-.432-5.5-3.5a2.855,2.855,0,0,1,1.51-3.809,16.471,16.471,0,0,0,2.166-.869,3.567,3.567,0,0,0,1.447-1.6c.48-1.432.689-2.953,1.042-4.43.232-.968-.083-1.422-1.1-1.348a12.459,12.459,0,0,1-2.081.1,2.748,2.748,0,0,0-3.363,2.406,6.785,6.785,0,0,1-.479,1.208,3.95,3.95,0,0,1-2.966,2.484c-.85.174-1.7.373-2.559.467a3.253,3.253,0,0,1-3.717-2.184c-.441-1.036-.729-2.139-1.2-3.158-.217-.465-.674-1.082-1.094-1.143-2.215-.326-4.452-.5-6.695-.721-.124,6.787,4.717,14.5,11.416,18.016C213.514,2580.221,221.032,2579.8,228.487,2575.528Zm-11.523,8.676c.914-.082,2.315-.1,3.675-.347,10.3-1.851,17.689-7.523,21.4-17.323,3.746-9.885,2.011-19.106-4.6-27.374a7.6,7.6,0,0,0-1.715-1.761,1.655,1.655,0,0,0-1.582.1c-.305.295-.249,1.063-.183,1.6.034.282.426.523.658.78,5.113,5.672,7.432,12.3,6.436,19.893-1.25,9.531-6.4,16.359-15.293,19.936-8.941,3.6-17.363,2.125-24.977-3.8a11.459,11.459,0,0,0-1.773-1.511,2.159,2.159,0,0,0-1.813.025c-.672.446-.492,1.219.056,1.808.266.286.551.555.842.816A27.886,27.886,0,0,0,216.964,2584.2Zm.634-49.45a.972.972,0,0,0-.146.213,5.754,5.754,0,0,0-.262.87,10.863,10.863,0,0,1-4.371,6.992c-.437.335-1.064,1.151-.946,1.344a5.311,5.311,0,0,0,1.59,1.386,1.889,1.889,0,0,0,.883.193c2.553.211,5.1.477,7.661.567a3.055,3.055,0,0,0,2-.826c1.853-1.8,3.65-1.939,5.634-.245,1.189,1.015,2.342,2.071,3.525,3.094,1.679,1.453,1.892,1.45,3.759.061C234.5,2541.366,226.4,2534.783,217.6,2534.754Zm15.829,61.359c.161-3.1.087-3.176-2.825-3.176h-23.3c-.39,0-.872-.134-1.151.044a3.388,3.388,0,0,0-1.307,1.3,5.018,5.018,0,0,0-.047,1.832Zm-13.067-5.867v-3.71l-2.478.294v3.416Z" fill="url(#linear-gradient)"/>
    <path id="Path_6660" data-name="Path 6660" d="M201.757,2540.24c-.838.582-1.273,1.1-1.783,1.189-.806.144-1.312-.434-1.306-1.237a1.113,1.113,0,0,1,1.335-1.216C200.509,2539.071,200.931,2539.619,201.757,2540.24Z" fill="url(#linear-gradient-2)"/>
  </g>
</svg>
