<?xml version="1.0" standalone="no"?>
<!DOCTYPE svg PUBLIC "-//W3C//DTD SVG 20010904//EN"
 "http://www.w3.org/TR/2001/REC-SVG-20010904/DTD/svg10.dtd">
<svg version="1.0" xmlns="http://www.w3.org/2000/svg"
 width="662.000000pt" height="393.000000pt" viewBox="0 0 662.000000 393.000000"
 preserveAspectRatio="xMidYMid meet">

<g transform="translate(0.000000,393.000000) scale(0.100000,-0.100000)"
fill="#000000" stroke="none">
<path d="M1825 3033 l-60 -4 -82 -82 -83 -82 0 -362 0 -363 -363 0 -362 0 -90
-90 -90 -90 450 0 450 0 80 -80 80 -80 -78 0 -77 0 0 -285 0 -285 85 0 85 0 0
277 0 278 80 -80 80 -80 0 88 0 87 367 0 368 0 87 87 88 88 0 445 0 445 -88
88 -87 87 -390 -2 c-215 -1 -417 -3 -450 -5z m675 -613 l0 -280 -285 0 -285 0
0 280 0 280 285 0 285 0 0 -280z"/>
<path d="M5480 2582 c-171 -57 -270 -199 -270 -387 0 -213 133 -372 340 -406
99 -17 213 0 300 43 l65 33 0 165 0 165 -132 3 -133 3 0 -49 c0 -26 5 -53 12
-60 7 -7 36 -12 65 -12 l53 0 0 -70 c0 -89 -9 -95 -146 -95 -94 0 -103 2 -150
30 -38 24 -56 45 -81 94 -29 56 -33 72 -33 145 0 128 37 206 119 254 41 24 56
27 136 27 79 0 97 -3 144 -27 29 -16 61 -28 72 -28 11 0 32 18 50 43 l31 42
-34 28 c-57 48 -131 70 -248 74 -82 2 -117 -1 -160 -15z"/>
<path d="M3060 2190 l0 -400 75 0 75 0 0 140 0 140 75 0 c134 0 222 29 282 92
45 47 63 96 63 176 0 122 -60 203 -176 238 -33 10 -99 14 -221 14 l-173 0 0
-400z m382 242 c31 -30 33 -37 33 -98 0 -63 -2 -67 -36 -99 -39 -35 -101 -50
-184 -43 l-40 3 -3 138 -3 139 101 -4 c97 -3 100 -4 132 -36z"/>
<path d="M3870 2190 l0 -401 78 3 77 3 3 398 2 397 -80 0 -80 0 0 -400z"/>
<path d="M4310 2190 l0 -401 68 3 67 3 0 272 c0 201 3 269 11 260 6 -7 100
-126 209 -265 108 -139 205 -257 215 -262 10 -6 39 -10 64 -10 l46 0 0 400 0
400 -70 0 -71 0 3 -270 c2 -149 2 -270 1 -270 -1 0 -98 122 -214 270 l-212
270 -59 0 -58 0 0 -400z"/>
<path d="M870 1520 l0 -280 85 0 85 0 0 280 0 280 -85 0 -85 0 0 -280z"/>
<path d="M2120 1340 l0 -270 50 0 50 0 0 270 0 270 -50 0 -50 0 0 -270z"/>
<path d="M2450 1340 l0 -270 45 0 45 0 2 180 3 180 95 -122 c183 -236 186
-238 231 -238 l39 0 -2 268 -3 267 -45 0 -45 0 0 -182 c0 -100 -3 -179 -6
-175 -4 4 -57 72 -119 152 -154 197 -167 210 -207 210 l-33 0 0 -270z"/>
<path d="M3127 1604 c-4 -4 -7 -126 -7 -271 l0 -263 55 0 55 0 0 105 0 104 98
3 97 3 3 43 3 42 -100 0 -101 0 0 75 0 74 118 3 117 3 0 40 0 40 -166 3 c-91
1 -168 -1 -172 -4z"/>
<path d="M3667 1604 c-4 -4 -7 -126 -7 -271 l0 -263 55 0 55 0 -2 268 -3 267
-45 3 c-25 2 -49 0 -53 -4z"/>
<path d="M4000 1341 l0 -271 45 0 45 0 0 181 0 181 142 -181 c139 -179 141
-181 180 -181 l38 0 0 271 0 270 -42 -3 -43 -3 -5 -179 -5 -178 -140 178
c-133 170 -142 179 -178 182 l-37 3 0 -270z"/>
<path d="M4687 1604 c-4 -4 -7 -126 -7 -271 l0 -263 55 0 55 0 -2 268 -3 267
-45 3 c-25 2 -49 0 -53 -4z"/>
<path d="M4970 1565 l0 -45 80 0 80 0 0 -225 0 -225 55 0 55 0 0 225 0 225 81
0 80 0 -3 43 -3 42 -212 3 -213 2 0 -45z"/>
<path d="M5570 1340 l0 -270 170 0 170 0 0 40 0 40 -120 0 -121 0 3 73 3 72
93 3 92 3 0 39 0 40 -95 0 -95 0 0 70 0 70 120 0 120 0 0 45 0 45 -170 0 -170
0 0 -270z"/>
<path d="M780 985 l85 -85 450 0 450 0 85 85 85 85 -620 0 -620 0 85 -85z"/>
</g>
</svg>
